<?xml version="1.0" encoding="UTF-8"?>
<!DOCTYPE svg PUBLIC "-//W3C//DTD SVG 1.1//EN" "http://www.w3.org/Graphics/SVG/1.1/DTD/svg11.dtd">
<svg xmlns="http://www.w3.org/2000/svg" version="1.1" width="1012px" height="832px" style="shape-rendering:geometricPrecision; text-rendering:geometricPrecision; image-rendering:optimizeQuality; fill-rule:evenodd; clip-rule:evenodd" xmlns:xlink="http://www.w3.org/1999/xlink">
<g><path style="opacity:0.214" fill="#f9f9f9" d="M 623.5,34.5 C 610.185,30.509 596.851,26.509 583.5,22.5C 576.774,22.0551 570.441,20.5551 564.5,18C 554.255,17.5864 544.255,15.9198 534.5,13C 493.206,9.51566 452.206,11.349 411.5,18.5C 413.732,16.8046 416.399,15.6379 419.5,15C 456.706,10.4427 494.039,9.27603 531.5,11.5C 559.408,15.0682 586.741,21.0682 613.5,29.5C 617.194,30.88 620.528,32.5467 623.5,34.5 Z"/></g>
<g><path style="opacity:0.996" fill="#e7e7e7" d="M 623.5,34.5 C 637.043,38.9379 650.376,43.9379 663.5,49.5C 663.5,50.5 663.5,51.5 663.5,52.5C 669.027,53.5995 674.36,55.2661 679.5,57.5C 679.5,58.5 679.5,59.5 679.5,60.5C 682.167,61.1667 684.833,61.8333 687.5,62.5C 687.5,63.5 687.5,64.5 687.5,65.5C 690.167,65.8333 692.833,66.1667 695.5,66.5C 695.5,67.8333 695.5,69.1667 695.5,70.5C 698.167,70.8333 700.833,71.1667 703.5,71.5C 703.5,72.8333 703.5,74.1667 703.5,75.5C 706.167,75.8333 708.833,76.1667 711.5,76.5C 711.5,77.5 711.5,78.5 711.5,79.5C 712.833,79.5 714.167,79.5 715.5,79.5C 715.5,80.8333 715.5,82.1667 715.5,83.5C 716.833,83.5 718.167,83.5 719.5,83.5C 719.5,84.5 719.5,85.5 719.5,86.5C 722.167,87.1667 724.833,87.8333 727.5,88.5C 727.5,89.5 727.5,90.5 727.5,91.5C 728.833,91.5 730.167,91.5 731.5,91.5C 731.5,92.5 731.5,93.5 731.5,94.5C 732.833,94.5 734.167,94.5 735.5,94.5C 735.5,95.5 735.5,96.5 735.5,97.5C 736.833,97.5 738.167,97.5 739.5,97.5C 739.5,98.8333 739.5,100.167 739.5,101.5C 740.833,101.5 742.167,101.5 743.5,101.5C 743.5,102.5 743.5,103.5 743.5,104.5C 744.833,104.5 746.167,104.5 747.5,104.5C 747.5,105.5 747.5,106.5 747.5,107.5C 748.833,107.5 750.167,107.5 751.5,107.5C 751.5,108.833 751.5,110.167 751.5,111.5C 752.833,111.5 754.167,111.5 755.5,111.5C 755.5,112.833 755.5,114.167 755.5,115.5C 756.833,115.5 758.167,115.5 759.5,115.5C 759.5,116.5 759.5,117.5 759.5,118.5C 760.833,118.5 762.167,118.5 763.5,118.5C 763.5,119.833 763.5,121.167 763.5,122.5C 764.833,122.5 766.167,122.5 767.5,122.5C 767.5,124.167 767.5,125.833 767.5,127.5C 768.833,127.5 770.167,127.5 771.5,127.5C 771.5,128.5 771.5,129.5 771.5,130.5C 772.833,130.5 774.167,130.5 775.5,130.5C 775.5,132.167 775.5,133.833 775.5,135.5C 776.833,135.5 778.167,135.5 779.5,135.5C 779.5,136.5 779.5,137.5 779.5,138.5C 780.833,138.5 782.167,138.5 783.5,138.5C 783.5,140.167 783.5,141.833 783.5,143.5C 784.833,143.5 786.167,143.5 787.5,143.5C 787.5,145.167 787.5,146.833 787.5,148.5C 788.833,148.5 790.167,148.5 791.5,148.5C 791.5,150.167 791.5,151.833 791.5,153.5C 792.833,153.5 794.167,153.5 795.5,153.5C 795.5,155.167 795.5,156.833 795.5,158.5C 796.833,158.5 798.167,158.5 799.5,158.5C 799.5,160.5 799.5,162.5 799.5,164.5C 800.833,164.5 802.167,164.5 803.5,164.5C 803.5,166.5 803.5,168.5 803.5,170.5C 804.833,170.5 806.167,170.5 807.5,170.5C 807.5,172.167 807.5,173.833 807.5,175.5C 808.833,175.5 810.167,175.5 811.5,175.5C 811.5,177.167 811.5,178.833 811.5,180.5C 812.833,180.5 814.167,180.5 815.5,180.5C 815.5,182.833 815.5,185.167 815.5,187.5C 816.833,187.5 818.167,187.5 819.5,187.5C 819.5,189.5 819.5,191.5 819.5,193.5C 820.833,193.5 822.167,193.5 823.5,193.5C 823.5,195.167 823.5,196.833 823.5,198.5C 824.833,198.5 826.167,198.5 827.5,198.5C 827.5,200.833 827.5,203.167 827.5,205.5C 828.833,205.5 830.167,205.5 831.5,205.5C 831.5,207.5 831.5,209.5 831.5,211.5C 832.833,211.5 834.167,211.5 835.5,211.5C 835.5,214.167 835.5,216.833 835.5,219.5C 836.833,219.5 838.167,219.5 839.5,219.5C 839.5,221.833 839.5,224.167 839.5,226.5C 840.833,226.5 842.167,226.5 843.5,226.5C 843.5,229.167 843.5,231.833 843.5,234.5C 844.833,234.5 846.167,234.5 847.5,234.5C 847.5,237.833 847.5,241.167 847.5,244.5C 848.833,244.5 850.167,244.5 851.5,244.5C 851.5,247.167 851.5,249.833 851.5,252.5C 852.833,252.5 854.167,252.5 855.5,252.5C 855.5,255.5 855.5,258.5 855.5,261.5C 856.833,261.5 858.167,261.5 859.5,261.5C 859.5,264.833 859.5,268.167 859.5,271.5C 860.833,271.5 862.167,271.5 863.5,271.5C 863.5,275.5 863.5,279.5 863.5,283.5C 864.833,283.5 866.167,283.5 867.5,283.5C 867.5,287.167 867.5,290.833 867.5,294.5C 868.833,294.5 870.167,294.5 871.5,294.5C 871.5,298.833 871.5,303.167 871.5,307.5C 872.833,307.5 874.167,307.5 875.5,307.5C 875.5,312.833 875.5,318.167 875.5,323.5C 876.833,323.5 878.167,323.5 879.5,323.5C 879.5,330.167 879.5,336.833 879.5,343.5C 880.833,343.5 882.167,343.5 883.5,343.5C 883.5,352.167 883.5,360.833 883.5,369.5C 884.833,369.5 886.167,369.5 887.5,369.5C 888.159,402.184 887.493,434.517 885.5,466.5C 886.559,459.202 886.726,451.869 886,444.5C 885.231,451.856 884.398,459.189 883.5,466.5C 883.5,475.833 883.5,485.167 883.5,494.5C 882.167,494.5 880.833,494.5 879.5,494.5C 879.5,500.833 879.5,507.167 879.5,513.5C 878.167,513.5 876.833,513.5 875.5,513.5C 875.5,518.833 875.5,524.167 875.5,529.5C 874.167,529.5 872.833,529.5 871.5,529.5C 871.5,534.167 871.5,538.833 871.5,543.5C 870.167,543.5 868.833,543.5 867.5,543.5C 867.5,547.5 867.5,551.5 867.5,555.5C 866.167,555.5 864.833,555.5 863.5,555.5C 863.5,558.833 863.5,562.167 863.5,565.5C 862.167,565.5 860.833,565.5 859.5,565.5C 859.5,569.5 859.5,573.5 859.5,577.5C 858.167,577.5 856.833,577.5 855.5,577.5C 855.5,580.167 855.5,582.833 855.5,585.5C 854.167,585.5 852.833,585.5 851.5,585.5C 851.5,588.833 851.5,592.167 851.5,595.5C 850.167,595.5 848.833,595.5 847.5,595.5C 847.5,598.167 847.5,600.833 847.5,603.5C 846.167,603.5 844.833,603.5 843.5,603.5C 843.5,606.167 843.5,608.833 843.5,611.5C 842.167,611.5 840.833,611.5 839.5,611.5C 839.5,613.5 839.5,615.5 839.5,617.5C 838.167,617.5 836.833,617.5 835.5,617.5C 835.5,620.167 835.5,622.833 835.5,625.5C 834.167,625.5 832.833,625.5 831.5,625.5C 831.5,627.833 831.5,630.167 831.5,632.5C 830.167,632.5 828.833,632.5 827.5,632.5C 827.5,634.5 827.5,636.5 827.5,638.5C 826.167,638.5 824.833,638.5 823.5,638.5C 823.5,640.833 823.5,643.167 823.5,645.5C 822.167,645.5 820.833,645.5 819.5,645.5C 819.5,647.167 819.5,648.833 819.5,650.5C 818.167,650.5 816.833,650.5 815.5,650.5C 815.5,652.5 815.5,654.5 815.5,656.5C 814.167,656.5 812.833,656.5 811.5,656.5C 811.5,658.167 811.5,659.833 811.5,661.5C 810.167,661.5 808.833,661.5 807.5,661.5C 808.01,664.388 807.344,666.721 805.5,668.5C 805.649,667.448 805.483,666.448 805,665.5C 801.204,669.449 798.037,673.783 795.5,678.5C 760.581,720.261 719.247,754.094 671.5,780C 672,780.167 672.5,780.333 673,780.5C 675.279,779.609 677.446,778.609 679.5,777.5C 679.5,778.5 679.5,779.5 679.5,780.5C 673.973,781.599 668.64,783.266 663.5,785.5C 663.5,786.5 663.5,787.5 663.5,788.5C 660.833,789.167 658.167,789.833 655.5,790.5C 657.099,788.691 659.099,787.358 661.5,786.5C 661.167,786.167 660.833,785.833 660.5,785.5C 596.563,815.787 529.23,828.954 458.5,825C 492.458,828.076 526.125,826.576 559.5,820.5C 555.328,822.718 550.661,824.051 545.5,824.5C 527.011,826.266 508.511,827.932 490,829.5C 456.467,827.83 423.301,823.33 390.5,816C 377.99,811.653 365.323,807.487 352.5,803.5C 335.049,796.604 318.049,788.937 301.5,780.5C 292.767,774.778 283.767,769.444 274.5,764.5C 266.881,759.216 259.548,753.549 252.5,747.5C 250.775,746.985 249.108,746.318 247.5,745.5C 235.682,735.852 224.182,725.852 213,715.5C 210.705,712.035 208.205,708.701 205.5,705.5C 199.435,699.435 193.435,693.435 187.5,687.5C 182.294,680.518 177.294,673.518 172.5,666.5C 169.936,662.397 167.769,658.064 166,653.5C 165.092,651.561 163.592,650.561 161.5,650.5C 151.267,631.896 141.1,613.229 131,594.5C 79.1024,478.982 78.6024,362.982 129.5,246.5C 133.947,237.941 138.113,229.274 142,220.5C 146.097,214.631 149.931,208.631 153.5,202.5C 154.596,199.316 155.929,196.316 157.5,193.5C 158.5,193.5 159.5,193.5 160.5,193.5C 162.167,189.5 163.833,185.5 165.5,181.5C 166.5,181.5 167.5,181.5 168.5,181.5C 170.468,176.537 173.135,171.87 176.5,167.5C 187.526,153.815 198.859,140.482 210.5,127.5C 226.975,113.198 243.642,99.0314 260.5,85C 272.32,77.5064 283.987,70.0064 295.5,62.5C 311.98,54.1851 328.647,46.1851 345.5,38.5C 358.284,34.0246 371.118,29.6913 384,25.5C 393.375,23.4836 402.542,21.1503 411.5,18.5C 452.206,11.349 493.206,9.51566 534.5,13C 544.255,15.9198 554.255,17.5864 564.5,18C 570.441,20.5551 576.774,22.0551 583.5,22.5C 596.851,26.509 610.185,30.509 623.5,34.5 Z"/></g>
<g><path style="opacity:0.186" fill="#fbfbfb" d="M 411.5,18.5 C 402.542,21.1503 393.375,23.4836 384,25.5C 371.118,29.6913 358.284,34.0246 345.5,38.5C 328.647,46.1851 311.98,54.1851 295.5,62.5C 296.084,60.7431 297.251,59.4098 299,58.5C 330.996,40.9269 364.829,27.9269 400.5,19.5C 404.132,18.7543 407.798,18.421 411.5,18.5 Z"/></g>
<g><path style="opacity:0.139" fill="#fcfcfc" d="M 295.5,62.5 C 283.987,70.0064 272.32,77.5064 260.5,85C 243.642,99.0314 226.975,113.198 210.5,127.5C 212.771,124.342 215.104,121.175 217.5,118C 227.154,109.018 237.154,100.351 247.5,92C 253.696,88.812 259.363,84.812 264.5,80C 271.167,75.6667 277.833,71.3333 284.5,67C 287.29,66.4391 289.623,65.1058 291.5,63C 292.793,62.51 294.127,62.3433 295.5,62.5 Z"/></g>
<g><path style="opacity:0.996" fill="#603d27" d="M 567.5,119.5 C 560.285,117.755 552.951,116.755 545.5,116.5C 547.5,115.833 549.5,115.167 551.5,114.5C 553.199,114.66 554.866,114.494 556.5,114C 530.459,103.405 504.125,102.738 477.5,112C 468.282,115.555 460.449,121.055 454,128.5C 453.472,129.816 453.972,130.483 455.5,130.5C 461.645,131.49 467.978,131.823 474.5,131.5C 476.415,131.216 478.081,131.549 479.5,132.5C 460.916,130.801 442.916,133.134 425.5,139.5C 425.557,138.391 425.89,137.391 426.5,136.5C 434.316,135.032 441.983,133.032 449.5,130.5C 459.576,118.17 472.243,110.004 487.5,106C 513.655,100.212 538.655,103.212 562.5,115C 564.063,116.736 565.73,118.236 567.5,119.5 Z"/></g>
<g><path style="opacity:0.996" fill="#e9c184" d="M 551.5,114.5 C 548.167,114.5 544.833,114.5 541.5,114.5C 520.142,113.279 499.475,116.445 479.5,124C 477.382,125.049 475.716,126.549 474.5,128.5C 468.38,130.317 462.047,130.984 455.5,130.5C 453.972,130.483 453.472,129.816 454,128.5C 460.449,121.055 468.282,115.555 477.5,112C 504.125,102.738 530.459,103.405 556.5,114C 554.866,114.494 553.199,114.66 551.5,114.5 Z"/></g>
<g><path style="opacity:0.996" fill="#57331b" d="M 541.5,114.5 C 535.833,115.167 530.167,115.833 524.5,116.5C 507.168,116.583 490.835,120.583 475.5,128.5C 475.167,128.5 474.833,128.5 474.5,128.5C 475.716,126.549 477.382,125.049 479.5,124C 499.475,116.445 520.142,113.279 541.5,114.5 Z"/></g>
<g><path style="opacity:0.996" fill="#a88762" d="M 541.5,114.5 C 544.833,114.5 548.167,114.5 551.5,114.5C 549.5,115.167 547.5,115.833 545.5,116.5C 538.5,116.5 531.5,116.5 524.5,116.5C 530.167,115.833 535.833,115.167 541.5,114.5 Z"/></g>
<g><path style="opacity:0.996" fill="#eac285" d="M 524.5,116.5 C 531.5,116.5 538.5,116.5 545.5,116.5C 552.951,116.755 560.285,117.755 567.5,119.5C 567.833,119.5 568.167,119.5 568.5,119.5C 568.834,122.275 570.167,122.941 572.5,121.5C 571.757,120.818 571.091,120.151 570.5,119.5C 574.986,122.306 578.986,125.972 582.5,130.5C 581.504,130.586 580.671,130.252 580,129.5C 579.517,130.448 579.351,131.448 579.5,132.5C 568.145,132.468 556.811,132.968 545.5,134C 534.975,136.09 524.475,138.257 514,140.5C 510.473,139.909 506.973,139.242 503.5,138.5C 500.916,136.528 497.916,135.528 494.5,135.5C 489.911,133.125 484.911,132.125 479.5,132.5C 478.081,131.549 476.415,131.216 474.5,131.5C 474.389,130.883 474.056,130.383 473.5,130C 474.416,129.722 475.082,129.222 475.5,128.5C 490.835,120.583 507.168,116.583 524.5,116.5 Z"/></g>
<g><path style="opacity:0.996" fill="#866548" d="M 568.5,119.5 C 569.167,119.5 569.833,119.5 570.5,119.5C 571.091,120.151 571.757,120.818 572.5,121.5C 570.167,122.941 568.834,122.275 568.5,119.5 Z"/></g>
<g><path style="opacity:0.996" fill="#ae8d66" d="M 474.5,128.5 C 474.833,128.5 475.167,128.5 475.5,128.5C 475.082,129.222 474.416,129.722 473.5,130C 474.056,130.383 474.389,130.883 474.5,131.5C 467.978,131.823 461.645,131.49 455.5,130.5C 462.047,130.984 468.38,130.317 474.5,128.5 Z"/></g>
<g><path style="opacity:0.996" fill="#eac285" d="M 479.5,132.5 C 484.35,133.623 489.35,134.623 494.5,135.5C 497.215,137.072 500.215,138.072 503.5,138.5C 505.1,139.644 506.767,140.811 508.5,142C 506.999,143.252 505.332,144.252 503.5,145C 489.663,146.87 475.996,149.536 462.5,153C 449.162,157.658 437.496,164.825 427.5,174.5C 438.928,166.286 451.261,159.453 464.5,154C 472.87,150.592 481.536,149.258 490.5,150C 475.812,158.341 461.812,167.674 448.5,178C 445.586,179.766 442.586,181.266 439.5,182.5C 438.5,182.5 437.5,182.5 436.5,182.5C 436.5,183.5 436.5,184.5 436.5,185.5C 435.167,187.5 433.833,189.5 432.5,191.5C 430.566,192.11 428.899,193.11 427.5,194.5C 423.358,196.12 419.858,198.786 417,202.5C 415.374,205.128 413.374,207.461 411,209.5C 410.187,211.436 409.687,213.436 409.5,215.5C 402.861,219.489 396.194,223.489 389.5,227.5C 388.686,225.234 388.186,222.9 388,220.5C 386.934,228.315 382.768,233.649 375.5,236.5C 375.167,235.833 374.833,235.167 374.5,234.5C 375.831,230.19 376.665,225.857 377,221.5C 375.43,228.109 373.097,234.443 370,240.5C 367.603,243.4 364.77,245.733 361.5,247.5C 361.227,236.671 362.727,226.005 366,215.5C 370.019,203.135 374.852,191.135 380.5,179.5C 382.735,176.709 384.735,173.709 386.5,170.5C 388.156,168.54 389.823,166.54 391.5,164.5C 394.833,161.833 397.833,158.833 400.5,155.5C 406.185,150.994 412.185,146.994 418.5,143.5C 420.738,141.884 423.071,140.551 425.5,139.5C 442.916,133.134 460.916,130.801 479.5,132.5 Z"/></g>
<g><path style="opacity:0.996" fill="#5b371e" d="M 479.5,132.5 C 484.911,132.125 489.911,133.125 494.5,135.5C 489.35,134.623 484.35,133.623 479.5,132.5 Z"/></g>
<g><path style="opacity:0.996" fill="#ebc385" d="M 630.5,148.5 C 637.879,153.545 643.879,159.878 648.5,167.5C 648.833,167.5 649.167,167.5 649.5,167.5C 649.659,171.674 651.325,175.008 654.5,177.5C 654.712,179.384 655.712,180.717 657.5,181.5C 648.518,182.332 639.518,182.832 630.5,183C 629.167,183.667 627.833,184.333 626.5,185C 634.616,184.407 642.783,183.907 651,183.5C 654.5,183.667 658,183.833 661.5,184C 662.044,184.717 662.711,185.217 663.5,185.5C 663.616,188.86 663.949,192.193 664.5,195.5C 656.241,196.863 648.574,199.696 641.5,204C 647.164,202.351 652.831,200.351 658.5,198C 661.5,197.333 664.5,197.333 667.5,198C 683.543,208.454 688.71,222.954 683,241.5C 681.924,245.559 680.757,249.559 679.5,253.5C 677.917,255.663 676.584,257.996 675.5,260.5C 674.469,261.355 673.303,262.022 672,262.5C 669.315,260.825 667.315,258.492 666,255.5C 665.283,256.044 664.783,256.711 664.5,257.5C 663.167,257.5 662.5,256.833 662.5,255.5C 663.995,255.585 664.995,254.919 665.5,253.5C 660.383,240.75 653.383,229.25 644.5,219C 640.921,217.294 637.421,215.461 634,213.5C 634.573,211.196 635.74,209.029 637.5,207C 637.167,206.833 636.833,206.667 636.5,206.5C 633.937,209.142 631.271,211.642 628.5,214C 611.409,216.885 596.075,223.552 582.5,234C 559.835,244.659 538.169,256.825 517.5,270.5C 515.973,270.427 514.973,271.094 514.5,272.5C 512.184,273.806 509.85,275.139 507.5,276.5C 506.167,277.167 505.167,278.167 504.5,279.5C 499.912,281.426 496.245,284.426 493.5,288.5C 490.489,289.669 487.822,291.336 485.5,293.5C 484.167,294.167 483.167,295.167 482.5,296.5C 480.973,296.427 479.973,297.094 479.5,298.5C 477.809,299.864 476.142,301.197 474.5,302.5C 473.167,303.167 472.167,304.167 471.5,305.5C 469.228,306.441 467.228,307.774 465.5,309.5C 464.5,309.833 463.833,310.5 463.5,311.5C 460.833,313.5 458.5,315.833 456.5,318.5C 454.596,318.738 453.262,319.738 452.5,321.5C 451.127,321.657 449.793,321.49 448.5,321C 452.002,316.964 454.669,313.13 456.5,309.5C 476.275,291.226 495.609,272.393 514.5,253C 520.206,248.489 525.872,243.989 531.5,239.5C 531.333,239.167 531.167,238.833 531,238.5C 527.911,239.96 525.078,241.793 522.5,244C 499.691,264.642 477.691,286.142 456.5,308.5C 452.626,309.369 449.959,311.703 448.5,315.5C 445.785,317.902 443.285,320.568 441,323.5C 440.333,322.167 440.333,320.833 441,319.5C 443.009,317.478 444.509,315.145 445.5,312.5C 447.925,309.411 449.925,306.078 451.5,302.5C 449.167,305.167 446.833,307.833 444.5,310.5C 443.077,312.545 441.077,313.545 438.5,313.5C 438.421,314.93 438.754,316.264 439.5,317.5C 438.09,318.569 437.09,319.903 436.5,321.5C 434.505,325.484 432.005,329.151 429,332.5C 428.517,333.448 428.351,334.448 428.5,335.5C 425.18,339.463 422.346,343.796 420,348.5C 418.46,346.045 418.126,343.379 419,340.5C 427.139,322.888 435.806,305.555 445,288.5C 457.115,271.385 469.615,254.551 482.5,238C 481.833,237.333 481.167,237.333 480.5,238C 475,244.167 469.5,250.333 464,256.5C 450.473,276.382 438.139,297.049 427,318.5C 420.931,332.874 414.764,347.208 408.5,361.5C 408.167,361.833 407.833,362.167 407.5,362.5C 406.304,361.441 405.637,360.107 405.5,358.5C 411.084,323.827 420.251,290.161 433,257.5C 436.921,248.649 442.087,240.649 448.5,233.5C 448.333,233.167 448.167,232.833 448,232.5C 443.582,236.247 439.916,240.58 437,245.5C 422.988,276.204 412.988,308.204 407,341.5C 406.327,332.811 406.493,324.144 407.5,315.5C 409.245,312.115 409.745,308.448 409,304.5C 407.974,307.802 407.14,311.135 406.5,314.5C 405.833,320.167 405.167,325.833 404.5,331.5C 403.539,329.735 403.205,327.735 403.5,325.5C 404.467,299.865 409.467,275.032 418.5,251C 418.389,249.278 417.889,249.112 417,250.5C 412.794,259.785 409.794,269.452 408,279.5C 404.475,296.007 402.308,312.674 401.5,329.5C 400.207,330.842 399.374,332.509 399,334.5C 398.817,331.635 398.317,328.969 397.5,326.5C 397.333,314.829 397.5,303.162 398,291.5C 399.575,285.8 400.908,280.134 402,274.5C 398.451,280.695 396.451,287.362 396,294.5C 395.667,307.167 395.333,319.833 395,332.5C 391.128,312.301 392.128,292.301 398,272.5C 401.207,261.046 404.707,249.713 408.5,238.5C 392.036,271.749 387.036,306.749 393.5,343.5C 395.522,345.419 395.856,347.586 394.5,350C 395.636,351.145 396.636,352.312 397.5,353.5C 398.392,357.789 399.725,361.956 401.5,366C 400.367,369.778 398.367,372.945 395.5,375.5C 393.854,374.221 392.687,372.555 392,370.5C 386.152,353.906 384.152,336.906 386,319.5C 384.13,322.922 383.297,326.589 383.5,330.5C 384.066,346.664 387.066,362.331 392.5,377.5C 392.45,382.378 390.117,383.712 385.5,381.5C 378.203,365.309 374.536,348.309 374.5,330.5C 375.107,321.823 375.774,313.156 376.5,304.5C 371.547,327.887 372.88,351.054 380.5,374C 380.167,374.5 379.833,375 379.5,375.5C 373.153,373.435 368.653,369.435 366,363.5C 365.189,362.04 364.355,361.707 363.5,362.5C 366.135,370.301 371.468,375.134 379.5,377C 385.487,381.177 384.82,383.011 377.5,382.5C 365.321,383.146 358.487,377.48 357,365.5C 356.667,368.5 356.333,371.5 356,374.5C 350.667,370.5 346,365.833 342,360.5C 341.536,361.094 341.369,361.761 341.5,362.5C 339.178,361.198 337.845,359.198 337.5,356.5C 338.363,357.463 339.03,357.463 339.5,356.5C 337.393,352.619 335.559,348.619 334,344.5C 333.517,345.448 333.351,346.448 333.5,347.5C 330.876,346.924 330.209,345.59 331.5,343.5C 332.289,343.217 332.956,342.717 333.5,342C 327.454,322.794 328.454,303.96 336.5,285.5C 338.485,282.202 340.485,278.869 342.5,275.5C 343.364,274.312 344.364,273.145 345.5,272C 344.756,270.961 343.756,270.461 342.5,270.5C 342.821,268.952 343.821,268.285 345.5,268.5C 345.393,270.379 345.893,270.712 347,269.5C 353.536,258.276 362.036,248.776 372.5,241C 379.833,236 387.167,231 394.5,226C 400.629,222.6 406.963,219.766 413.5,217.5C 414.978,217.238 416.311,217.571 417.5,218.5C 416.674,219.451 416.508,220.451 417,221.5C 418.372,220.09 419.205,218.423 419.5,216.5C 425.541,210.108 430.874,203.108 435.5,195.5C 477.434,150.056 529.434,129.889 591.5,135C 605.621,136.429 618.621,140.929 630.5,148.5 Z"/></g>
<g><path style="opacity:0.996" fill="#7b583b" d="M 494.5,135.5 C 497.916,135.528 500.916,136.528 503.5,138.5C 500.215,138.072 497.215,137.072 494.5,135.5 Z"/></g>
<g><path style="opacity:0.996" fill="#5b361f" d="M 582.5,130.5 C 584.14,131.32 585.807,132.153 587.5,133C 602.467,134.046 616.467,138.212 629.5,145.5C 630.386,146.325 630.719,147.325 630.5,148.5C 618.621,140.929 605.621,136.429 591.5,135C 529.434,129.889 477.434,150.056 435.5,195.5C 430.874,203.108 425.541,210.108 419.5,216.5C 418.4,215.442 417.066,214.608 415.5,214C 418.464,212.382 421.297,210.548 424,208.5C 428.749,200.093 434.582,192.593 441.5,186C 440.695,184.887 440.028,183.721 439.5,182.5C 442.586,181.266 445.586,179.766 448.5,178C 461.812,167.674 475.812,158.341 490.5,150C 481.536,149.258 472.87,150.592 464.5,154C 451.261,159.453 438.928,166.286 427.5,174.5C 437.496,164.825 449.162,157.658 462.5,153C 475.996,149.536 489.663,146.87 503.5,145C 505.332,144.252 506.999,143.252 508.5,142C 506.767,140.811 505.1,139.644 503.5,138.5C 506.973,139.242 510.473,139.909 514,140.5C 524.475,138.257 534.975,136.09 545.5,134C 556.811,132.968 568.145,132.468 579.5,132.5C 579.351,131.448 579.517,130.448 580,129.5C 580.671,130.252 581.504,130.586 582.5,130.5 Z"/></g>
<g><path style="opacity:0.996" fill="#bc9a72" d="M 426.5,136.5 C 425.89,137.391 425.557,138.391 425.5,139.5C 423.071,140.551 420.738,141.884 418.5,143.5C 417.791,142.596 416.791,142.263 415.5,142.5C 416.614,139.322 418.614,137.989 421.5,138.5C 422.842,136.995 424.508,136.328 426.5,136.5 Z"/></g>
<g><path style="opacity:0.996" fill="#5d3922" d="M 415.5,142.5 C 416.791,142.263 417.791,142.596 418.5,143.5C 412.185,146.994 406.185,150.994 400.5,155.5C 400.5,154.833 400.5,154.167 400.5,153.5C 405.225,149.439 410.225,145.772 415.5,142.5 Z"/></g>
<g><path style="opacity:0.996" fill="#644129" d="M 630.5,148.5 C 631.873,148.343 633.207,148.51 634.5,149C 638.667,153.167 642.833,157.333 647,161.5C 647.813,163.436 648.313,165.436 648.5,167.5C 643.879,159.878 637.879,153.545 630.5,148.5 Z"/></g>
<g><path style="opacity:0.996" fill="#e1bd87" d="M 400.5,153.5 C 400.5,154.167 400.5,154.833 400.5,155.5C 397.167,157.833 393.833,160.167 390.5,162.5C 390.525,159.821 391.858,158.488 394.5,158.5C 394.5,157.5 394.5,156.5 394.5,155.5C 396.685,155.296 398.685,154.63 400.5,153.5 Z"/></g>
<g><path style="opacity:0.996" fill="#7a593d" d="M 400.5,155.5 C 397.833,158.833 394.833,161.833 391.5,164.5C 391.167,163.833 390.833,163.167 390.5,162.5C 393.833,160.167 397.167,157.833 400.5,155.5 Z"/></g>
<g><path style="opacity:0.996" fill="#5f3b25" d="M 391.5,164.5 C 389.823,166.54 388.156,168.54 386.5,170.5C 386.324,166.808 387.991,164.808 391.5,164.5 Z"/></g>
<g><path style="opacity:0.996" fill="#623f28" d="M 649.5,167.5 C 652.207,170.247 653.873,173.58 654.5,177.5C 651.325,175.008 649.659,171.674 649.5,167.5 Z"/></g>
<g><path style="opacity:0.996" fill="#674530" d="M 386.5,170.5 C 384.735,173.709 382.735,176.709 380.5,179.5C 380.301,174.866 382.301,171.866 386.5,170.5 Z"/></g>
<g><path style="opacity:0.996" fill="#5a351d" d="M 602.5,172.5 C 603.552,172.351 604.552,172.517 605.5,173C 597.288,177.186 588.954,181.186 580.5,185C 560.496,199.806 540.163,213.806 519.5,227C 524.467,223.034 529.134,218.701 533.5,214C 545.776,206.056 557.776,197.723 569.5,189C 580.227,182.822 591.227,177.322 602.5,172.5 Z"/></g>
<g><path style="opacity:0.996" fill="#5f3b23" d="M 654.5,177.5 C 656.189,178.931 658.189,179.764 660.5,180C 662.16,181.488 663.16,183.321 663.5,185.5C 662.711,185.217 662.044,184.717 661.5,184C 658,183.833 654.5,183.667 651,183.5C 642.783,183.907 634.616,184.407 626.5,185C 627.833,184.333 629.167,183.667 630.5,183C 639.518,182.832 648.518,182.332 657.5,181.5C 655.712,180.717 654.712,179.384 654.5,177.5 Z"/></g>
<g><path style="opacity:0.996" fill="#a9855d" d="M 427.5,174.5 C 425.143,178.045 422.143,180.545 418.5,182C 421.101,178.888 424.101,176.388 427.5,174.5 Z"/></g>
<g><path style="opacity:0.996" fill="#5f3b22" d="M 440.5,143.5 C 441.873,143.343 443.207,143.51 444.5,144C 436.712,147.394 429.045,151.061 421.5,155C 400.65,172.511 386.15,194.345 378,220.5C 384.008,193.151 398.175,170.984 420.5,154C 427.102,150.201 433.768,146.701 440.5,143.5 Z"/></g>
<g><path style="opacity:0.996" fill="#5e3a22" d="M 436.5,185.5 C 437.552,185.351 438.552,185.517 439.5,186C 437.46,188.304 435.126,190.138 432.5,191.5C 433.833,189.5 435.167,187.5 436.5,185.5 Z"/></g>
<g><path style="opacity:0.996" fill="#5d3921" d="M 534.5,153.5 C 535.552,153.351 536.552,153.517 537.5,154C 516.021,162.404 496.021,173.404 477.5,187C 463.254,201.908 449.754,217.408 437,233.5C 424.662,255.51 415.662,278.844 410,303.5C 423.673,230.333 465.173,180.333 534.5,153.5 Z"/></g>
<g><path style="opacity:0.996" fill="#603c23" d="M 414.5,184.5 C 415.239,184.369 415.906,184.536 416.5,185C 406.856,194.973 398.356,205.806 391,217.5C 392.117,212.921 394.117,208.588 397,204.5C 403.042,197.962 408.875,191.295 414.5,184.5 Z"/></g>
<g><path style="opacity:0.996" fill="#56321a" d="M 432.5,191.5 C 427.004,197.163 421.671,202.997 416.5,209C 415.833,209.667 415.167,209.667 414.5,209C 418.724,204.041 423.057,199.207 427.5,194.5C 428.899,193.11 430.566,192.11 432.5,191.5 Z"/></g>
<g><path style="opacity:0.996" fill="#bda17f" d="M 439.5,182.5 C 440.028,183.721 440.695,184.887 441.5,186C 434.582,192.593 428.749,200.093 424,208.5C 421.297,210.548 418.464,212.382 415.5,214C 417.066,214.608 418.4,215.442 419.5,216.5C 419.205,218.423 418.372,220.09 417,221.5C 416.508,220.451 416.674,219.451 417.5,218.5C 416.311,217.571 414.978,217.238 413.5,217.5C 414.598,216.603 414.598,215.77 413.5,215C 412.072,214.421 410.738,214.588 409.5,215.5C 409.687,213.436 410.187,211.436 411,209.5C 413.374,207.461 415.374,205.128 417,202.5C 419.858,198.786 423.358,196.12 427.5,194.5C 423.057,199.207 418.724,204.041 414.5,209C 415.167,209.667 415.833,209.667 416.5,209C 421.671,202.997 427.004,197.163 432.5,191.5C 435.126,190.138 437.46,188.304 439.5,186C 438.552,185.517 437.552,185.351 436.5,185.5C 436.5,184.5 436.5,183.5 436.5,182.5C 437.5,182.5 438.5,182.5 439.5,182.5 Z"/></g>
<g><path style="opacity:0.996" fill="#66432c" d="M 663.5,185.5 C 665.236,188.972 667.069,192.639 669,196.5C 673.19,199.934 677.19,203.6 681,207.5C 682.705,209.577 683.872,211.91 684.5,214.5C 685.272,218.452 685.605,222.452 685.5,226.5C 686.026,234.718 685.36,242.718 683.5,250.5C 682.167,251.5 680.833,252.5 679.5,253.5C 680.757,249.559 681.924,245.559 683,241.5C 688.71,222.954 683.543,208.454 667.5,198C 664.5,197.333 661.5,197.333 658.5,198C 652.831,200.351 647.164,202.351 641.5,204C 648.574,199.696 656.241,196.863 664.5,195.5C 663.949,192.193 663.616,188.86 663.5,185.5 Z"/></g>
<g><path style="opacity:0.996" fill="#f1dbb6" d="M 662.5,255.5 C 662.5,256.833 663.167,257.5 664.5,257.5C 668.594,262.364 671.094,268.031 672,274.5C 672.181,271.305 672.681,268.305 673.5,265.5C 673.331,267.912 673.997,270.079 675.5,272C 675.257,272.902 674.923,273.735 674.5,274.5C 673.883,274.611 673.383,274.944 673,275.5C 672.833,277 672.667,278.5 672.5,280C 673.595,295.486 673.762,310.986 673,326.5C 671.822,330.505 669.655,333.838 666.5,336.5C 661.827,338.335 659.827,341.835 660.5,347C 661.459,354.667 663.125,362.167 665.5,369.5C 665.5,370.167 665.833,370.5 666.5,370.5C 668.129,376.392 670.129,382.059 672.5,387.5C 673.736,392.611 674.736,397.778 675.5,403C 675.226,406.592 674.559,410.092 673.5,413.5C 672.441,415.555 670.775,416.889 668.5,417.5C 667.833,417.5 667.5,417.833 667.5,418.5C 661.317,419.735 655.151,419.401 649,417.5C 646.929,418.775 645.429,420.609 644.5,423C 640.514,423.499 636.514,423.666 632.5,423.5C 628.236,423.344 624.236,424.011 620.5,425.5C 614.687,425.704 609.02,426.704 603.5,428.5C 601.381,428.468 600.048,429.468 599.5,431.5C 597.164,433.004 595.331,435.004 594,437.5C 593.344,444.122 591.677,450.455 589,456.5C 585.27,457.46 581.437,457.793 577.5,457.5C 577.167,456.5 576.5,455.833 575.5,455.5C 574.167,455.167 572.833,454.833 571.5,454.5C 571.5,453.833 571.167,453.5 570.5,453.5C 568.537,452.18 566.537,450.846 564.5,449.5C 560.805,445.474 557.138,441.474 553.5,437.5C 552.167,434.833 550.833,432.167 549.5,429.5C 548.406,426.318 547.072,423.318 545.5,420.5C 545.483,418.435 545.15,416.435 544.5,414.5C 544.843,412.517 544.176,411.183 542.5,410.5C 541.935,408.048 541.268,405.715 540.5,403.5C 540.771,401.62 540.104,400.287 538.5,399.5C 538.5,397.833 538.5,396.167 538.5,394.5C 536.346,390.177 534.346,385.844 532.5,381.5C 531.302,378.574 530.302,375.574 529.5,372.5C 528.649,370.118 527.316,368.118 525.5,366.5C 525.768,364.901 525.434,363.568 524.5,362.5C 524.573,360.973 523.906,359.973 522.5,359.5C 522.167,358.167 521.833,356.833 521.5,355.5C 521.167,354.5 520.5,353.833 519.5,353.5C 518.317,347.555 517.317,341.555 516.5,335.5C 516.862,332.72 517.528,330.054 518.5,327.5C 525.568,320.03 530.568,311.364 533.5,301.5C 534.846,288.181 536.012,274.848 537,261.5C 551.11,252.191 565.944,244.024 581.5,237C 587.5,233 593.5,229 599.5,225C 607.637,222.732 615.637,220.066 623.5,217C 629.993,215.62 635.993,216.62 641.5,220C 652.251,229.676 659.251,241.509 662.5,255.5 Z"/></g>
<g><path style="opacity:0.996" fill="#aa937e" d="M 684.5,214.5 C 686.017,216.462 686.684,218.795 686.5,221.5C 686.493,223.369 686.16,225.036 685.5,226.5C 685.605,222.452 685.272,218.452 684.5,214.5 Z"/></g>
<g><path style="opacity:0.996" fill="#5e3920" d="M 430.5,216.5 C 431.552,216.351 432.552,216.517 433.5,217C 429.613,220.887 425.779,224.721 422,228.5C 419.324,235.2 416.658,241.867 414,248.5C 414.475,235.217 419.975,224.55 430.5,216.5 Z"/></g>
<g><path style="opacity:0.996" fill="#5f3b24" d="M 380.5,179.5 C 374.852,191.135 370.019,203.135 366,215.5C 362.727,226.005 361.227,236.671 361.5,247.5C 364.77,245.733 367.603,243.4 370,240.5C 373.097,234.443 375.43,228.109 377,221.5C 376.665,225.857 375.831,230.19 374.5,234.5C 374.833,235.167 375.167,235.833 375.5,236.5C 382.768,233.649 386.934,228.315 388,220.5C 388.186,222.9 388.686,225.234 389.5,227.5C 396.194,223.489 402.861,219.489 409.5,215.5C 410.738,214.588 412.072,214.421 413.5,215C 414.598,215.77 414.598,216.603 413.5,217.5C 406.963,219.766 400.629,222.6 394.5,226C 387.167,231 379.833,236 372.5,241C 362.036,248.776 353.536,258.276 347,269.5C 345.893,270.712 345.393,270.379 345.5,268.5C 346.806,266.184 348.139,263.85 349.5,261.5C 351.446,260.965 352.446,259.632 352.5,257.5C 355.051,255.422 356.884,252.756 358,249.5C 360.448,226.038 366.781,203.704 377,182.5C 377.759,180.937 378.926,179.937 380.5,179.5 Z"/></g>
<g><path style="opacity:0.996" fill="#623d23" d="M 408.5,238.5 C 408.755,235.984 409.589,233.65 411,231.5C 411.295,234.242 410.462,236.575 408.5,238.5 Z"/></g>
<g><path style="opacity:0.996" fill="#5a361f" d="M 662.5,255.5 C 659.251,241.509 652.251,229.676 641.5,220C 635.993,216.62 629.993,215.62 623.5,217C 615.637,220.066 607.637,222.732 599.5,225C 593.5,229 587.5,233 581.5,237C 565.944,244.024 551.11,252.191 537,261.5C 536.012,274.848 534.846,288.181 533.5,301.5C 533.501,289.021 533.335,276.355 533,263.5C 528.034,266.302 523.201,269.302 518.5,272.5C 517.702,272.043 517.369,271.376 517.5,270.5C 538.169,256.825 559.835,244.659 582.5,234C 596.075,223.552 611.409,216.885 628.5,214C 631.271,211.642 633.937,209.142 636.5,206.5C 636.833,206.667 637.167,206.833 637.5,207C 635.74,209.029 634.573,211.196 634,213.5C 637.421,215.461 640.921,217.294 644.5,219C 653.383,229.25 660.383,240.75 665.5,253.5C 664.995,254.919 663.995,255.585 662.5,255.5 Z"/></g>
<g><path style="opacity:0.996" fill="#dfbd8c" d="M 683.5,250.5 C 683.167,252.5 682.833,254.5 682.5,256.5C 681.5,256.5 680.5,256.5 679.5,256.5C 679.5,255.5 679.5,254.5 679.5,253.5C 680.833,252.5 682.167,251.5 683.5,250.5 Z"/></g>
<g><path style="opacity:0.996" fill="#5a361f" d="M 675.5,260.5 C 674.833,262.167 674.167,263.833 673.5,265.5C 672.681,268.305 672.181,271.305 672,274.5C 671.094,268.031 668.594,262.364 664.5,257.5C 664.783,256.711 665.283,256.044 666,255.5C 667.315,258.492 669.315,260.825 672,262.5C 673.303,262.022 674.469,261.355 675.5,260.5 Z"/></g>
<g><path style="opacity:0.996" fill="#e6c28c" d="M 352.5,257.5 C 352.446,259.632 351.446,260.965 349.5,261.5C 349.468,259.381 350.468,258.048 352.5,257.5 Z"/></g>
<g><path style="opacity:0.996" fill="#76563f" d="M 679.5,253.5 C 679.5,254.5 679.5,255.5 679.5,256.5C 678.5,258.167 677.167,259.5 675.5,260.5C 676.584,257.996 677.917,255.663 679.5,253.5 Z"/></g>
<g><path style="opacity:0.996" fill="#633f25" d="M 467.5,281.5 C 470.399,276.718 473.566,272.051 477,267.5C 482.635,262.867 487.968,257.867 493,252.5C 493.667,253.167 493.667,253.833 493,254.5C 484.484,263.574 475.984,272.574 467.5,281.5 Z"/></g>
<g><path style="opacity:0.996" fill="#623e25" d="M 456.5,309.5 C 456.5,309.167 456.5,308.833 456.5,308.5C 477.691,286.142 499.691,264.642 522.5,244C 525.078,241.793 527.911,239.96 531,238.5C 531.167,238.833 531.333,239.167 531.5,239.5C 525.872,243.989 520.206,248.489 514.5,253C 495.609,272.393 476.275,291.226 456.5,309.5 Z"/></g>
<g><path style="opacity:0.996" fill="#73716f" d="M 533.5,301.5 C 530.568,311.364 525.568,320.03 518.5,327.5C 518.649,326.448 518.483,325.448 518,324.5C 513.484,334.62 513.984,344.286 519.5,353.5C 520.5,353.833 521.167,354.5 521.5,355.5C 520.441,357.726 520.608,360.059 522,362.5C 522.483,361.552 522.649,360.552 522.5,359.5C 523.906,359.973 524.573,360.973 524.5,362.5C 523.379,364.089 523.546,365.756 525,367.5C 525.399,367.272 525.565,366.938 525.5,366.5C 527.316,368.118 528.649,370.118 529.5,372.5C 528.503,372.47 527.836,372.97 527.5,374C 528.993,377.132 530.493,380.299 532,383.5C 532.464,382.906 532.631,382.239 532.5,381.5C 534.346,385.844 536.346,390.177 538.5,394.5C 536.991,393.141 536.324,393.641 536.5,396C 536.796,397.888 537.296,399.722 538,401.5C 538.464,400.906 538.631,400.239 538.5,399.5C 540.104,400.287 540.771,401.62 540.5,403.5C 539.357,406.068 539.524,408.735 541,411.5C 541.383,410.944 541.883,410.611 542.5,410.5C 544.176,411.183 544.843,412.517 544.5,414.5C 543.849,413.909 543.182,413.243 542.5,412.5C 541.985,415.833 542.485,419.166 544,422.5C 544.717,421.956 545.217,421.289 545.5,420.5C 547.072,423.318 548.406,426.318 549.5,429.5C 548.522,429.811 547.855,430.478 547.5,431.5C 549.138,434.304 550.971,436.971 553,439.5C 553.464,438.906 553.631,438.239 553.5,437.5C 557.138,441.474 560.805,445.474 564.5,449.5C 563.355,450.793 563.689,451.959 565.5,453C 567.139,454.519 568.806,454.686 570.5,453.5C 571.167,453.5 571.5,453.833 571.5,454.5C 570.711,454.783 570.044,455.283 569.5,456C 571,456.5 572.5,457 574,457.5C 575.03,457.164 575.53,456.497 575.5,455.5C 576.5,455.833 577.167,456.5 577.5,457.5C 576.262,457.81 576.262,458.31 577.5,459C 582.969,461.505 587.803,460.672 592,456.5C 594.067,451.386 595.401,446.053 596,440.5C 597.106,437.274 598.939,434.607 601.5,432.5C 601.043,431.702 600.376,431.369 599.5,431.5C 600.048,429.468 601.381,428.468 603.5,428.5C 603.47,429.497 603.97,430.164 605,430.5C 611.777,428.745 618.61,427.245 625.5,426C 623.866,425.506 622.199,425.34 620.5,425.5C 624.236,424.011 628.236,423.344 632.5,423.5C 633.263,424.268 634.263,424.768 635.5,425C 640.155,425.499 644.821,425.666 649.5,425.5C 649.665,428.85 649.498,432.183 649,435.5C 648.167,436.333 647.333,437.167 646.5,438C 639.167,438.333 631.833,438.667 624.5,439C 606.727,439.794 599.893,448.96 604,466.5C 604.278,467.416 604.778,468.082 605.5,468.5C 607.117,471.784 609.45,474.451 612.5,476.5C 617.423,479.879 622.756,480.379 628.5,478C 630.57,477.052 632.07,475.552 633,473.5C 633.993,469.558 634.66,465.558 635,461.5C 635.333,461.167 635.667,460.833 636,460.5C 636.822,462.788 637.489,465.122 638,467.5C 638.232,466.263 638.732,465.263 639.5,464.5C 639.523,466.927 640.023,469.26 641,471.5C 646.685,480.388 651.519,489.721 655.5,499.5C 658.645,510.434 658.145,521.1 654,531.5C 649.957,534.577 646.124,537.91 642.5,541.5C 638.434,543.583 634.101,544.917 629.5,545.5C 628.848,544.275 627.681,543.608 626,543.5C 620.662,543.98 615.495,544.647 610.5,545.5C 605.851,544.935 601.184,544.435 596.5,544C 594.934,543.392 593.6,542.558 592.5,541.5C 593.239,541.631 593.906,541.464 594.5,541C 590.556,538.647 586.556,538.147 582.5,539.5C 574.77,537.022 567.437,533.689 560.5,529.5C 561.239,529.631 561.906,529.464 562.5,529C 559.649,527.392 556.649,526.726 553.5,527C 554.416,527.278 555.082,527.778 555.5,528.5C 555.158,529.338 554.492,529.672 553.5,529.5C 552.566,528.432 552.232,527.099 552.5,525.5C 552.611,524.883 552.944,524.383 553.5,524C 551.593,522.878 549.593,522.045 547.5,521.5C 541.495,519.168 536.162,515.835 531.5,511.5C 531.938,511.565 532.272,511.399 532.5,511C 531.271,509.471 529.771,508.304 528,507.5C 527.536,508.094 527.369,508.761 527.5,509.5C 526.167,509.5 525.5,508.833 525.5,507.5C 526.525,507.103 526.692,506.437 526,505.5C 519.405,500.909 513.405,495.576 508,489.5C 507.283,490.044 506.783,490.711 506.5,491.5C 504.178,490.198 502.845,488.198 502.5,485.5C 503.458,485.953 504.292,486.619 505,487.5C 504.923,485.228 503.757,483.562 501.5,482.5C 500.292,481.766 498.959,481.433 497.5,481.5C 496.957,478.962 495.957,476.628 494.5,474.5C 494.607,470.012 492.94,466.012 489.5,462.5C 488.662,462.158 488.328,461.492 488.5,460.5C 486.14,452.342 484.64,444.009 484,435.5C 483.722,434.584 483.222,433.918 482.5,433.5C 482.66,431.847 483.326,430.514 484.5,429.5C 486.536,427.112 488.036,423.778 489,419.5C 489.751,414.428 489.418,409.428 488,404.5C 487.148,405.571 486.315,406.571 485.5,407.5C 485.5,405.833 485.5,404.167 485.5,402.5C 485.961,393.469 485.961,384.469 485.5,375.5C 485.833,374.833 486.167,374.167 486.5,373.5C 488.96,369.356 489.627,365.023 488.5,360.5C 488.5,355.833 488.5,351.167 488.5,346.5C 489.6,348.277 490.434,350.277 491,352.5C 491.652,349.291 490.818,346.625 488.5,344.5C 487.758,342.02 486.758,339.687 485.5,337.5C 486.573,336.749 486.74,335.749 486,334.5C 483.788,331.324 480.955,328.991 477.5,327.5C 475.847,327.34 474.514,326.674 473.5,325.5C 471.723,324.4 469.723,323.566 467.5,323C 462.492,322.499 457.492,321.999 452.5,321.5C 453.262,319.738 454.596,318.738 456.5,318.5C 456.435,318.938 456.601,319.272 457,319.5C 459.5,317 462,314.5 464.5,312C 464.272,311.601 463.938,311.435 463.5,311.5C 463.833,310.5 464.5,309.833 465.5,309.5C 465.461,310.756 465.961,311.756 467,312.5C 469.016,310.316 471.183,308.316 473.5,306.5C 473.043,305.702 472.376,305.369 471.5,305.5C 472.167,304.167 473.167,303.167 474.5,302.5C 474.843,304.225 475.843,304.725 477.5,304C 480.082,302.662 480.749,300.829 479.5,298.5C 479.973,297.094 480.973,296.427 482.5,296.5C 482.461,297.756 482.961,298.756 484,299.5C 485.563,298.275 486.73,296.775 487.5,295C 487.164,293.97 486.497,293.47 485.5,293.5C 487.822,291.336 490.489,289.669 493.5,288.5C 493.047,289.458 492.381,290.292 491.5,291C 496.713,288.7 501.38,285.367 505.5,281C 504.944,280.617 504.611,280.117 504.5,279.5C 505.167,278.167 506.167,277.167 507.5,276.5C 507.312,278.103 507.812,279.437 509,280.5C 510.822,277.679 512.989,275.179 515.5,273C 515.272,272.601 514.938,272.435 514.5,272.5C 514.973,271.094 515.973,270.427 517.5,270.5C 517.369,271.376 517.702,272.043 518.5,272.5C 523.201,269.302 528.034,266.302 533,263.5C 533.335,276.355 533.501,289.021 533.5,301.5 Z"/></g>
<g><path style="opacity:0.996" fill="#5e3a21" d="M 342.5,270.5 C 343.756,270.461 344.756,270.961 345.5,272C 344.364,273.145 343.364,274.312 342.5,275.5C 342.5,274.5 342.5,273.5 342.5,272.5C 342.5,271.833 342.5,271.167 342.5,270.5 Z"/></g>
<g><path style="opacity:0.996" fill="#dcbd8e" d="M 342.5,272.5 C 342.5,273.5 342.5,274.5 342.5,275.5C 341.5,275.5 340.5,275.5 339.5,275.5C 339.5,274.5 339.5,273.5 339.5,272.5C 340.5,272.5 341.5,272.5 342.5,272.5 Z"/></g>
<g><path style="opacity:0.996" fill="#5e3a23" d="M 339.5,275.5 C 340.5,275.5 341.5,275.5 342.5,275.5C 340.485,278.869 338.485,282.202 336.5,285.5C 336.443,284.391 336.11,283.391 335.5,282.5C 337.269,280.579 338.603,278.246 339.5,275.5 Z"/></g>
<g><path style="opacity:0.996" fill="#603f2b" d="M 514.5,272.5 C 514.938,272.435 515.272,272.601 515.5,273C 512.989,275.179 510.822,277.679 509,280.5C 507.812,279.437 507.312,278.103 507.5,276.5C 509.85,275.139 512.184,273.806 514.5,272.5 Z"/></g>
<g><path style="opacity:0.996" fill="#56321b" d="M 504.5,279.5 C 504.611,280.117 504.944,280.617 505.5,281C 501.38,285.367 496.713,288.7 491.5,291C 492.381,290.292 493.047,289.458 493.5,288.5C 496.245,284.426 499.912,281.426 504.5,279.5 Z"/></g>
<g><path style="opacity:0.996" fill="#6d4a30" d="M 467.5,281.5 C 465.889,285.051 463.556,288.051 460.5,290.5C 462.111,286.949 464.444,283.949 467.5,281.5 Z"/></g>
<g><path style="opacity:0.996" fill="#d8b583" d="M 335.5,282.5 C 336.11,283.391 336.443,284.391 336.5,285.5C 335.167,286.5 333.833,287.5 332.5,288.5C 332.386,285.784 333.386,283.784 335.5,282.5 Z"/></g>
<g><path style="opacity:0.996" fill="#59341c" d="M 428.5,335.5 C 431.383,334.051 434.217,332.385 437,330.5C 437.399,330.728 437.565,331.062 437.5,331.5C 434.839,339.804 435.005,348.137 438,356.5C 438.333,351.167 438.667,345.833 439,340.5C 440.08,338.004 441.414,335.67 443,333.5C 441.997,343.021 440.497,352.521 438.5,362C 441.149,371.116 444.482,379.949 448.5,388.5C 448.19,389.738 447.69,389.738 447,388.5C 445.729,385.567 444.062,382.901 442,380.5C 444.999,418.824 448.332,457.157 452,495.5C 454.261,517.988 457.261,540.322 461,562.5C 457.774,551.371 455.441,540.038 454,528.5C 448.999,476.162 443.999,423.828 439,371.5C 438.385,369.884 437.385,368.551 436,367.5C 435.693,380.842 435.693,394.175 436,407.5C 434.602,392.2 433.602,376.866 433,361.5C 431.837,368.14 430.837,374.807 430,381.5C 429.414,372.117 429.914,362.783 431.5,353.5C 431.167,351.5 430.833,349.5 430.5,347.5C 424.109,352.148 421.276,358.481 422,366.5C 421.433,363.832 420.933,361.166 420.5,358.5C 420.694,355.67 421.361,353.004 422.5,350.5C 416.971,349.75 413.971,352.083 413.5,357.5C 415.735,357.205 417.735,357.539 419.5,358.5C 418.037,361.203 417.204,364.203 417,367.5C 415.882,378.473 415.382,389.473 415.5,400.5C 415.167,400.5 414.833,400.5 414.5,400.5C 414.667,388.495 414.5,376.495 414,364.5C 410.853,367.468 408.186,370.802 406,374.5C 405.723,382.536 405.057,390.536 404,398.5C 392.646,449.729 390.312,501.396 397,553.5C 401.946,589.176 408.612,624.509 417,659.5C 417.667,661.833 417.667,664.167 417,666.5C 404.125,615.915 395.791,564.582 392,512.5C 391.031,489.784 391.698,467.117 394,444.5C 396.87,427.814 399.87,411.147 403,394.5C 403.667,389.5 403.667,384.5 403,379.5C 402.492,377.096 401.325,376.429 399.5,377.5C 390.078,399.521 384.578,422.521 383,446.5C 380.7,472.791 380.034,499.124 381,525.5C 382.984,545.526 385.151,565.526 387.5,585.5C 387.663,587.857 387.497,590.19 387,592.5C 386.776,588.203 385.943,584.037 384.5,580C 382.721,577.896 381.388,575.562 380.5,573C 380.645,571.774 380.978,570.607 381.5,569.5C 379.779,546.227 378.613,522.894 378,499.5C 366.073,476.385 357.74,452.052 353,426.5C 350.91,415.69 353.41,406.19 360.5,398C 363.309,396.259 366.309,395.092 369.5,394.5C 370.833,394.833 372.167,395.167 373.5,395.5C 374.598,396.397 374.598,397.23 373.5,398C 358.782,399.055 352.616,406.888 355,421.5C 355.963,429.616 357.463,437.616 359.5,445.5C 361.059,444.926 362.559,444.26 364,443.5C 364.464,444.094 364.631,444.761 364.5,445.5C 361.286,446.78 360.119,449.114 361,452.5C 366.113,466.727 371.78,480.727 378,494.5C 379.567,474.166 381.067,453.833 382.5,433.5C 383.528,432.213 383.195,431.046 381.5,430C 383.693,421.532 385.693,413.032 387.5,404.5C 389.703,397.892 391.703,391.226 393.5,384.5C 371.662,387.453 354.329,380.12 341.5,362.5C 341.369,361.761 341.536,361.094 342,360.5C 346,365.833 350.667,370.5 356,374.5C 356.333,371.5 356.667,368.5 357,365.5C 358.487,377.48 365.321,383.146 377.5,382.5C 384.82,383.011 385.487,381.177 379.5,377C 371.468,375.134 366.135,370.301 363.5,362.5C 364.355,361.707 365.189,362.04 366,363.5C 368.653,369.435 373.153,373.435 379.5,375.5C 379.833,375 380.167,374.5 380.5,374C 372.88,351.054 371.547,327.887 376.5,304.5C 375.774,313.156 375.107,321.823 374.5,330.5C 374.536,348.309 378.203,365.309 385.5,381.5C 390.117,383.712 392.45,382.378 392.5,377.5C 387.066,362.331 384.066,346.664 383.5,330.5C 383.297,326.589 384.13,322.922 386,319.5C 384.152,336.906 386.152,353.906 392,370.5C 392.687,372.555 393.854,374.221 395.5,375.5C 398.367,372.945 400.367,369.778 401.5,366C 399.725,361.956 398.392,357.789 397.5,353.5C 397.721,350.903 398.221,350.903 399,353.5C 400.718,351.798 400.885,349.965 399.5,348C 401.43,342.126 402.097,335.96 401.5,329.5C 402.308,312.674 404.475,296.007 408,279.5C 409.794,269.452 412.794,259.785 417,250.5C 417.889,249.112 418.389,249.278 418.5,251C 409.467,275.032 404.467,299.865 403.5,325.5C 402.35,330.316 402.184,335.316 403,340.5C 404.149,337.607 404.649,334.607 404.5,331.5C 405.167,325.833 405.833,320.167 406.5,314.5C 407.167,314.5 407.5,314.833 407.5,315.5C 406.493,324.144 406.327,332.811 407,341.5C 412.988,308.204 422.988,276.204 437,245.5C 439.916,240.58 443.582,236.247 448,232.5C 448.167,232.833 448.333,233.167 448.5,233.5C 442.087,240.649 436.921,248.649 433,257.5C 420.251,290.161 411.084,323.827 405.5,358.5C 405.637,360.107 406.304,361.441 407.5,362.5C 407.833,362.167 408.167,361.833 408.5,361.5C 414.764,347.208 420.931,332.874 427,318.5C 438.139,297.049 450.473,276.382 464,256.5C 469.5,250.333 475,244.167 480.5,238C 481.167,237.333 481.833,237.333 482.5,238C 469.615,254.551 457.115,271.385 445,288.5C 435.806,305.555 427.139,322.888 419,340.5C 418.126,343.379 418.46,346.045 420,348.5C 422.346,343.796 425.18,339.463 428.5,335.5 Z"/></g>
<g><path style="opacity:0.996" fill="#5e3a24" d="M 336.5,285.5 C 328.454,303.96 327.454,322.794 333.5,342C 332.956,342.717 332.289,343.217 331.5,343.5C 325.931,324.996 326.264,306.663 332.5,288.5C 333.833,287.5 335.167,286.5 336.5,285.5 Z"/></g>
<g><path style="opacity:0.996" fill="#7a573d" d="M 460.5,290.5 C 460.315,292.196 459.481,293.529 458,294.5C 457.721,292.588 458.554,291.254 460.5,290.5 Z"/></g>
<g><path style="opacity:0.996" fill="#5c3922" d="M 485.5,293.5 C 486.497,293.47 487.164,293.97 487.5,295C 486.73,296.775 485.563,298.275 484,299.5C 482.961,298.756 482.461,297.756 482.5,296.5C 483.167,295.167 484.167,294.167 485.5,293.5 Z"/></g>
<g><path style="opacity:0.996" fill="#59351d" d="M 366.5,288.5 C 367.097,288.735 367.43,289.235 367.5,290C 359.365,309.006 355.199,328.839 355,349.5C 354.193,340.454 354.526,331.454 356,322.5C 358.401,310.798 361.901,299.465 366.5,288.5 Z"/></g>
<g><path style="opacity:0.996" fill="#6a4934" d="M 674.5,274.5 C 675.816,289.477 676.316,304.477 676,319.5C 676.035,324.258 674.702,328.591 672,332.5C 670.549,334.464 668.716,335.797 666.5,336.5C 669.655,333.838 671.822,330.505 673,326.5C 673.762,310.986 673.595,295.486 672.5,280C 672.667,278.5 672.833,277 673,275.5C 673.383,274.944 673.883,274.611 674.5,274.5 Z"/></g>
<g><path style="opacity:0.996" fill="#6e4a2e" d="M 376.5,304.5 C 376.395,300.313 377.228,296.313 379,292.5C 379.03,296.741 378.196,300.741 376.5,304.5 Z"/></g>
<g><path style="opacity:0.996" fill="#5b3822" d="M 479.5,298.5 C 480.749,300.829 480.082,302.662 477.5,304C 475.843,304.725 474.843,304.225 474.5,302.5C 476.142,301.197 477.809,299.864 479.5,298.5 Z"/></g>
<g><path style="opacity:0.996" fill="#714e33" d="M 451.5,302.5 C 451.685,300.804 452.519,299.471 454,298.5C 454.279,300.412 453.446,301.746 451.5,302.5 Z"/></g>
<g><path style="opacity:0.996" fill="#5a351d" d="M 408.5,238.5 C 404.707,249.713 401.207,261.046 398,272.5C 392.128,292.301 391.128,312.301 395,332.5C 395.333,319.833 395.667,307.167 396,294.5C 396.451,287.362 398.451,280.695 402,274.5C 400.908,280.134 399.575,285.8 398,291.5C 397.5,303.162 397.333,314.829 397.5,326.5C 397.71,331.198 397.876,335.864 398,340.5C 397.178,338.212 396.511,335.878 396,333.5C 396.083,337.311 395.25,340.645 393.5,343.5C 387.036,306.749 392.036,271.749 408.5,238.5 Z"/></g>
<g><path style="opacity:0.996" fill="#2c211a" d="M 593.5,301.5 C 612.405,300.379 628.572,306.379 642,319.5C 643.668,325.493 641.502,327.993 635.5,327C 625.282,319.225 613.949,313.558 601.5,310C 596.232,308.932 591.232,309.599 586.5,312C 581.376,317.113 576.376,322.279 571.5,327.5C 571.754,317.845 576.087,310.345 584.5,305C 587.571,303.704 590.571,302.538 593.5,301.5 Z"/></g>
<g><path style="opacity:0.996" fill="#56321b" d="M 471.5,305.5 C 472.376,305.369 473.043,305.702 473.5,306.5C 471.183,308.316 469.016,310.316 467,312.5C 465.961,311.756 465.461,310.756 465.5,309.5C 467.228,307.774 469.228,306.441 471.5,305.5 Z"/></g>
<g><path style="opacity:0.996" fill="#623e25" d="M 451.5,302.5 C 449.925,306.078 447.925,309.411 445.5,312.5C 444.662,312.158 444.328,311.492 444.5,310.5C 446.833,307.833 449.167,305.167 451.5,302.5 Z"/></g>
<g><path style="opacity:0.996" fill="#8a6849" d="M 407.5,315.5 C 407.5,314.833 407.167,314.5 406.5,314.5C 407.14,311.135 407.974,307.802 409,304.5C 409.745,308.448 409.245,312.115 407.5,315.5 Z"/></g>
<g><path style="opacity:0.996" fill="#603d25" d="M 463.5,311.5 C 463.938,311.435 464.272,311.601 464.5,312C 462,314.5 459.5,317 457,319.5C 456.601,319.272 456.435,318.938 456.5,318.5C 458.5,315.833 460.833,313.5 463.5,311.5 Z"/></g>
<g><path style="opacity:0.996" fill="#ad825e" d="M 444.5,310.5 C 444.328,311.492 444.662,312.158 445.5,312.5C 444.509,315.145 443.009,317.478 441,319.5C 440.333,320.833 440.333,322.167 441,323.5C 443.285,320.568 445.785,317.902 448.5,315.5C 448.938,315.435 449.272,315.601 449.5,316C 447.667,318.5 445.833,321 444,323.5C 441.138,324.796 438.638,326.629 436.5,329C 435.833,329.667 435.167,329.667 434.5,329C 435.833,326.667 437.167,324.333 438.5,322C 437.906,321.536 437.239,321.369 436.5,321.5C 437.09,319.903 438.09,318.569 439.5,317.5C 438.754,316.264 438.421,314.93 438.5,313.5C 441.077,313.545 443.077,312.545 444.5,310.5 Z"/></g>
<g><path style="opacity:0.996" fill="#8f6749" d="M 456.5,308.5 C 456.5,308.833 456.5,309.167 456.5,309.5C 454.669,313.13 452.002,316.964 448.5,321C 449.793,321.49 451.127,321.657 452.5,321.5C 451.602,322.158 450.602,322.824 449.5,323.5C 450.325,324.386 451.325,324.719 452.5,324.5C 449.628,325.325 446.628,326.159 443.5,327C 440.854,327.804 438.854,329.304 437.5,331.5C 437.565,331.062 437.399,330.728 437,330.5C 434.217,332.385 431.383,334.051 428.5,335.5C 428.351,334.448 428.517,333.448 429,332.5C 432.005,329.151 434.505,325.484 436.5,321.5C 437.239,321.369 437.906,321.536 438.5,322C 437.167,324.333 435.833,326.667 434.5,329C 435.167,329.667 435.833,329.667 436.5,329C 438.638,326.629 441.138,324.796 444,323.5C 445.833,321 447.667,318.5 449.5,316C 449.272,315.601 448.938,315.435 448.5,315.5C 449.959,311.703 452.626,309.369 456.5,308.5 Z"/></g>
<g><path style="opacity:0.996" fill="#532f18" d="M 452.5,321.5 C 457.492,321.999 462.492,322.499 467.5,323C 469.723,323.566 471.723,324.4 473.5,325.5C 466.535,324.659 459.535,324.326 452.5,324.5C 451.325,324.719 450.325,324.386 449.5,323.5C 450.602,322.824 451.602,322.158 452.5,321.5 Z"/></g>
<g><path style="opacity:0.996" fill="#58341d" d="M 518.5,327.5 C 517.528,330.054 516.862,332.72 516.5,335.5C 517.317,341.555 518.317,347.555 519.5,353.5C 513.984,344.286 513.484,334.62 518,324.5C 518.483,325.448 518.649,326.448 518.5,327.5 Z"/></g>
<g><path style="opacity:0.996" fill="#5b3720" d="M 477.5,327.5 C 480.955,328.991 483.788,331.324 486,334.5C 486.74,335.749 486.573,336.749 485.5,337.5C 483.213,333.878 480.547,330.545 477.5,327.5 Z"/></g>
<g><path style="opacity:0.996" fill="#9a7a59" d="M 403.5,325.5 C 403.205,327.735 403.539,329.735 404.5,331.5C 404.649,334.607 404.149,337.607 403,340.5C 402.184,335.316 402.35,330.316 403.5,325.5 Z"/></g>
<g><path style="opacity:0.996" fill="#a47b59" d="M 397.5,326.5 C 398.317,328.969 398.817,331.635 399,334.5C 399.374,332.509 400.207,330.842 401.5,329.5C 402.097,335.96 401.43,342.126 399.5,348C 400.885,349.965 400.718,351.798 399,353.5C 398.221,350.903 397.721,350.903 397.5,353.5C 396.636,352.312 395.636,351.145 394.5,350C 395.856,347.586 395.522,345.419 393.5,343.5C 395.25,340.645 396.083,337.311 396,333.5C 396.511,335.878 397.178,338.212 398,340.5C 397.876,335.864 397.71,331.198 397.5,326.5 Z"/></g>
<g><path style="opacity:0.996" fill="#746044" d="M 629.5,330.5 C 630.809,334.351 630.809,338.351 629.5,342.5C 626.96,338.518 626.96,334.518 629.5,330.5 Z"/></g>
<g><path style="opacity:0.996" fill="#796548" d="M 623.5,341.5 C 622.833,341.5 622.167,341.5 621.5,341.5C 620.126,339.041 617.96,338.041 615,338.5C 608.844,339.118 602.677,339.618 596.5,340C 597.381,340.708 598.047,341.542 598.5,342.5C 596.167,342.5 593.833,342.5 591.5,342.5C 588.558,339.534 589.225,337.7 593.5,337C 603.494,336.5 613.494,336.334 623.5,336.5C 623.5,338.167 623.5,339.833 623.5,341.5 Z"/></g>
<g><path style="opacity:0.996" fill="#e1cca9" d="M 621.5,341.5 C 619.453,341.489 617.453,341.156 615.5,340.5C 609.917,341.898 604.25,342.565 598.5,342.5C 598.047,341.542 597.381,340.708 596.5,340C 602.677,339.618 608.844,339.118 615,338.5C 617.96,338.041 620.126,339.041 621.5,341.5 Z"/></g>
<g><path style="opacity:0.996" fill="#32261f" d="M 621.5,341.5 C 622.167,341.5 622.833,341.5 623.5,341.5C 623.269,344.785 624.603,347.285 627.5,349C 624.704,348.903 622.037,348.07 619.5,346.5C 617.639,348.888 616.306,351.554 615.5,354.5C 609.637,356.039 603.97,355.539 598.5,353C 594.682,349.593 590.682,346.426 586.5,343.5C 588.045,342.548 589.712,342.215 591.5,342.5C 593.833,342.5 596.167,342.5 598.5,342.5C 604.25,342.565 609.917,341.898 615.5,340.5C 617.453,341.156 619.453,341.489 621.5,341.5 Z"/></g>
<g><path style="opacity:0.996" fill="#f4f3f1" d="M 592.5,343.5 C 596.182,343.335 599.848,343.501 603.5,344C 605.5,347.333 607.5,350.667 609.5,354C 601.619,354.061 595.952,350.561 592.5,343.5 Z"/></g>
<g><path style="opacity:0.996" fill="#56321b" d="M 488.5,344.5 C 490.818,346.625 491.652,349.291 491,352.5C 490.434,350.277 489.6,348.277 488.5,346.5C 488.5,345.833 488.5,345.167 488.5,344.5 Z"/></g>
<g><path style="opacity:0.996" fill="#eac385" d="M 448.5,388.5 C 450.176,389.183 450.843,390.517 450.5,392.5C 449.007,393.312 448.34,394.645 448.5,396.5C 450.254,402.758 451.587,409.091 452.5,415.5C 452.66,417.153 453.326,418.486 454.5,419.5C 458.15,430.773 461.15,442.107 463.5,453.5C 464.167,453.5 464.5,453.833 464.5,454.5C 463.848,455.449 463.514,456.615 463.5,458C 465.192,470.367 467.192,482.534 469.5,494.5C 469.833,495.167 470.167,495.833 470.5,496.5C 469.359,499.64 469.192,502.973 470,506.5C 471.096,514.385 472.596,522.052 474.5,529.5C 474.5,530.167 474.5,530.833 474.5,531.5C 475.012,540.424 476.345,549.091 478.5,557.5C 478.5,558.167 478.5,558.833 478.5,559.5C 478.984,568.367 479.984,577.033 481.5,585.5C 482.538,593.806 482.705,602.139 482,610.5C 474.443,598.379 468.776,585.379 465,571.5C 464.333,570.167 463.667,568.833 463,567.5C 463.75,575.095 465.75,582.429 469,589.5C 473.491,599.151 478.491,608.485 484,617.5C 486.204,630.429 487.704,643.429 488.5,656.5C 488.366,658.292 488.699,659.958 489.5,661.5C 490.402,665.948 491.402,670.281 492.5,674.5C 493.184,683.938 494.518,693.271 496.5,702.5C 498.092,711.461 499.426,720.461 500.5,729.5C 475.167,729.5 449.833,729.5 424.5,729.5C 424.5,728.5 424.5,727.5 424.5,726.5C 423.492,724.456 422.492,722.456 421.5,720.5C 420.608,715.484 419.608,710.484 418.5,705.5C 417.308,703.887 416.308,702.22 415.5,700.5C 414.286,695.216 413.286,689.882 412.5,684.5C 411.308,682.887 410.308,681.22 409.5,679.5C 408.659,674.468 407.659,669.468 406.5,664.5C 404.979,661.391 404.146,658.058 404,654.5C 403.617,653.944 403.117,653.611 402.5,653.5C 401.705,649.524 401.038,645.524 400.5,641.5C 399.201,639.588 398.201,637.588 397.5,635.5C 396.242,629.545 395.242,623.545 394.5,617.5C 393.341,615.145 392.341,612.812 391.5,610.5C 391.002,605.848 390.669,601.181 390.5,596.5C 389.387,592.762 388.387,589.096 387.5,585.5C 385.151,565.526 382.984,545.526 381,525.5C 380.034,499.124 380.7,472.791 383,446.5C 384.578,422.521 390.078,399.521 399.5,377.5C 401.325,376.429 402.492,377.096 403,379.5C 403.667,384.5 403.667,389.5 403,394.5C 399.87,411.147 396.87,427.814 394,444.5C 391.698,467.117 391.031,489.784 392,512.5C 395.791,564.582 404.125,615.915 417,666.5C 417.667,664.167 417.667,661.833 417,659.5C 408.612,624.509 401.946,589.176 397,553.5C 390.312,501.396 392.646,449.729 404,398.5C 405.057,390.536 405.723,382.536 406,374.5C 408.186,370.802 410.853,367.468 414,364.5C 414.5,376.495 414.667,388.495 414.5,400.5C 413.568,411.462 413.235,422.462 413.5,433.5C 412.566,434.568 412.232,435.901 412.5,437.5C 410.783,487.152 410.283,536.819 411,586.5C 412.421,549.19 413.255,511.857 413.5,474.5C 414.496,461.344 414.829,448.01 414.5,434.5C 414.373,423.148 414.706,411.815 415.5,400.5C 415.382,389.473 415.882,378.473 417,367.5C 417.204,364.203 418.037,361.203 419.5,358.5C 419.833,358.5 420.167,358.5 420.5,358.5C 420.933,361.166 421.433,363.832 422,366.5C 421.276,358.481 424.109,352.148 430.5,347.5C 430.833,349.5 431.167,351.5 431.5,353.5C 429.914,362.783 429.414,372.117 430,381.5C 430.837,374.807 431.837,368.14 433,361.5C 433.602,376.866 434.602,392.2 436,407.5C 435.693,394.175 435.693,380.842 436,367.5C 437.385,368.551 438.385,369.884 439,371.5C 443.999,423.828 448.999,476.162 454,528.5C 455.441,540.038 457.774,551.371 461,562.5C 457.261,540.322 454.261,517.988 452,495.5C 448.332,457.157 444.999,418.824 442,380.5C 444.062,382.901 445.729,385.567 447,388.5C 447.69,389.738 448.19,389.738 448.5,388.5 Z"/></g>
<g><path style="opacity:0.996" fill="#32261f" d="M 420.5,358.5 C 420.167,358.5 419.833,358.5 419.5,358.5C 417.735,357.539 415.735,357.205 413.5,357.5C 413.971,352.083 416.971,349.75 422.5,350.5C 421.361,353.004 420.694,355.67 420.5,358.5 Z"/></g>
<g><path style="opacity:0.996" fill="#623f28" d="M 337.5,356.5 C 336.167,353.5 334.833,350.5 333.5,347.5C 333.351,346.448 333.517,345.448 334,344.5C 335.559,348.619 337.393,352.619 339.5,356.5C 339.03,357.463 338.363,357.463 337.5,356.5 Z"/></g>
<g><path style="opacity:0.996" fill="#542f19" d="M 521.5,355.5 C 521.833,356.833 522.167,358.167 522.5,359.5C 522.649,360.552 522.483,361.552 522,362.5C 520.608,360.059 520.441,357.726 521.5,355.5 Z"/></g>
<g><path style="opacity:0.996" fill="#674531" d="M 666.5,336.5 C 663.224,339.398 661.891,343.065 662.5,347.5C 663.311,353.77 664.645,359.937 666.5,366C 666.486,367.385 666.152,368.551 665.5,369.5C 663.125,362.167 661.459,354.667 660.5,347C 659.827,341.835 661.827,338.335 666.5,336.5 Z"/></g>
<g><path style="opacity:0.996" fill="#58341d" d="M 488.5,360.5 C 489.627,365.023 488.96,369.356 486.5,373.5C 487.167,369.167 487.833,364.833 488.5,360.5 Z"/></g>
<g><path style="opacity:0.996" fill="#59351e" d="M 524.5,362.5 C 525.434,363.568 525.768,364.901 525.5,366.5C 525.565,366.938 525.399,367.272 525,367.5C 523.546,365.756 523.379,364.089 524.5,362.5 Z"/></g>
<g><path style="opacity:0.996" fill="#57331d" d="M 529.5,372.5 C 530.302,375.574 531.302,378.574 532.5,381.5C 532.631,382.239 532.464,382.906 532,383.5C 530.493,380.299 528.993,377.132 527.5,374C 527.836,372.97 528.503,372.47 529.5,372.5 Z"/></g>
<g><path style="opacity:0.996" fill="#5e3b26" d="M 666.5,370.5 C 667.79,371.058 668.623,372.058 669,373.5C 670.893,378.007 672.059,382.673 672.5,387.5C 670.129,382.059 668.129,376.392 666.5,370.5 Z"/></g>
<g><path style="opacity:0.996" fill="#57341d" d="M 485.5,375.5 C 485.961,384.469 485.961,393.469 485.5,402.5C 484.321,393.482 484.321,384.482 485.5,375.5 Z"/></g>
<g><path style="opacity:0.996" fill="#5c3923" d="M 363.5,391.5 C 357.724,392.945 351.724,394.445 345.5,396C 341.686,398.481 339.519,401.981 339,406.5C 338.536,405.906 338.369,405.239 338.5,404.5C 339.494,398.005 343.161,393.838 349.5,392C 354.155,391.501 358.821,391.334 363.5,391.5 Z"/></g>
<g><path style="opacity:0.996" fill="#56311b" d="M 538.5,394.5 C 538.5,396.167 538.5,397.833 538.5,399.5C 538.631,400.239 538.464,400.906 538,401.5C 537.296,399.722 536.796,397.888 536.5,396C 536.324,393.641 536.991,393.141 538.5,394.5 Z"/></g>
<g><path style="opacity:0.996" fill="#65442f" d="M 672.5,387.5 C 674.828,390.607 676.328,394.274 677,398.5C 677.498,403.519 677.332,408.519 676.5,413.5C 675.5,413.5 674.5,413.5 673.5,413.5C 674.559,410.092 675.226,406.592 675.5,403C 674.736,397.778 673.736,392.611 672.5,387.5 Z"/></g>
<g><path style="opacity:0.996" fill="#a67956" d="M 373.5,395.5 C 376.614,395.555 378.948,396.888 380.5,399.5C 383.093,400.754 385.427,402.42 387.5,404.5C 385.693,413.032 383.693,421.532 381.5,430C 383.195,431.046 383.528,432.213 382.5,433.5C 380.434,432.752 378.6,433.419 377,435.5C 376.383,436.449 376.549,437.282 377.5,438C 375.482,438.505 373.482,439.005 371.5,439.5C 374.101,436.279 373.434,435.779 369.5,438C 368.449,439.385 367.116,440.385 365.5,441C 366.416,441.278 367.082,441.778 367.5,442.5C 366.833,443.833 365.833,444.833 364.5,445.5C 364.631,444.761 364.464,444.094 364,443.5C 362.559,444.26 361.059,444.926 359.5,445.5C 357.463,437.616 355.963,429.616 355,421.5C 352.616,406.888 358.782,399.055 373.5,398C 374.598,397.23 374.598,396.397 373.5,395.5 Z"/></g>
<g><path style="opacity:0.996" fill="#5c3821" d="M 380.5,399.5 C 381.458,400.962 382.624,402.295 384,403.5C 384.667,404.167 384.667,404.833 384,405.5C 381.436,403.273 378.603,401.439 375.5,400C 376.962,398.372 378.628,398.205 380.5,399.5 Z"/></g>
<g><path style="opacity:0.996" fill="#5f3b24" d="M 634.5,383.5 C 636.199,383.34 637.866,383.506 639.5,384C 627.469,387.654 622.636,395.82 625,408.5C 624.007,404.558 623.34,400.558 623,396.5C 617.925,404.742 611.091,411.076 602.5,415.5C 602.167,415.167 601.833,414.833 601.5,414.5C 606.052,410.964 610.552,407.297 615,403.5C 618.468,398.066 622.301,392.899 626.5,388C 629.099,386.205 631.766,384.705 634.5,383.5 Z"/></g>
<g><path style="opacity:0.996" fill="#5a3620" d="M 540.5,403.5 C 541.268,405.715 541.935,408.048 542.5,410.5C 541.883,410.611 541.383,410.944 541,411.5C 539.524,408.735 539.357,406.068 540.5,403.5 Z"/></g>
<g><path style="opacity:0.996" fill="#2d221b" d="M 641.5,404.5 C 645.582,404.344 649.582,404.844 653.5,406C 660.041,410.066 659.708,412.233 652.5,412.5C 645.373,412.222 638.373,411.222 631.5,409.5C 634.657,407.255 637.991,405.588 641.5,404.5 Z"/></g>
<g><path style="opacity:0.996" fill="#58331c" d="M 450.5,392.5 C 449.578,399.056 451.245,404.723 455.5,409.5C 455.379,412.105 454.379,414.105 452.5,415.5C 451.587,409.091 450.254,402.758 448.5,396.5C 448.34,394.645 449.007,393.312 450.5,392.5 Z"/></g>
<g><path style="opacity:0.996" fill="#816044" d="M 414.5,400.5 C 414.833,400.5 415.167,400.5 415.5,400.5C 414.706,411.815 414.373,423.148 414.5,434.5C 413.833,434.5 413.5,434.167 413.5,433.5C 413.235,422.462 413.568,411.462 414.5,400.5 Z"/></g>
<g><path style="opacity:0.996" fill="#603c27" d="M 337.5,409.5 C 338.904,416.736 338.737,424.069 337,431.5C 336.506,429.866 336.34,428.199 336.5,426.5C 336.313,420.788 336.646,415.121 337.5,409.5 Z"/></g>
<g><path style="opacity:0.996" fill="#58341e" d="M 484.5,429.5 C 486.339,424.48 487.672,419.314 488.5,414C 488.167,412.833 487.833,411.667 487.5,410.5C 486.38,411.833 485.047,412.333 483.5,412C 484.582,410.67 485.249,409.17 485.5,407.5C 486.315,406.571 487.148,405.571 488,404.5C 489.418,409.428 489.751,414.428 489,419.5C 488.036,423.778 486.536,427.112 484.5,429.5 Z"/></g>
<g><path style="opacity:0.996" fill="#f0dab5" d="M 452.5,324.5 C 459.535,324.326 466.535,324.659 473.5,325.5C 474.514,326.674 475.847,327.34 477.5,327.5C 480.547,330.545 483.213,333.878 485.5,337.5C 486.758,339.687 487.758,342.02 488.5,344.5C 488.5,345.167 488.5,345.833 488.5,346.5C 488.5,351.167 488.5,355.833 488.5,360.5C 487.833,364.833 487.167,369.167 486.5,373.5C 486.167,374.167 485.833,374.833 485.5,375.5C 484.321,384.482 484.321,393.482 485.5,402.5C 485.5,404.167 485.5,405.833 485.5,407.5C 485.249,409.17 484.582,410.67 483.5,412C 485.047,412.333 486.38,411.833 487.5,410.5C 487.833,411.667 488.167,412.833 488.5,414C 487.672,419.314 486.339,424.48 484.5,429.5C 483.326,430.514 482.66,431.847 482.5,433.5C 482.48,443.081 484.48,452.081 488.5,460.5C 488.328,461.492 488.662,462.158 489.5,462.5C 490.648,466.787 492.315,470.787 494.5,474.5C 495.957,476.628 496.957,478.962 497.5,481.5C 498.959,481.433 500.292,481.766 501.5,482.5C 501.557,483.609 501.89,484.609 502.5,485.5C 502.845,488.198 504.178,490.198 506.5,491.5C 512.247,497.585 518.581,502.918 525.5,507.5C 525.5,508.833 526.167,509.5 527.5,509.5C 528.833,510.167 530.167,510.833 531.5,511.5C 536.162,515.835 541.495,519.168 547.5,521.5C 548.945,523.063 550.611,524.396 552.5,525.5C 552.232,527.099 552.566,528.432 553.5,529.5C 555.23,532.765 554.563,533.765 551.5,532.5C 550.686,530.727 549.352,530.227 547.5,531C 535.199,539.797 525.199,550.631 517.5,563.5C 515.468,564.048 514.468,565.381 514.5,567.5C 514.167,568.833 513.833,570.167 513.5,571.5C 506.474,578.194 499.474,584.861 492.5,591.5C 490.139,593.194 488.139,595.194 486.5,597.5C 485.504,597.586 484.671,597.252 484,596.5C 483.335,591.844 482.835,587.177 482.5,582.5C 481.453,574.69 480.119,567.023 478.5,559.5C 478.5,558.833 478.5,558.167 478.5,557.5C 477.808,548.603 476.475,539.936 474.5,531.5C 474.5,530.833 474.5,530.167 474.5,529.5C 473.167,518.5 471.833,507.5 470.5,496.5C 470.167,495.833 469.833,495.167 469.5,494.5C 468.051,481.141 466.385,467.807 464.5,454.5C 464.5,453.833 464.167,453.5 463.5,453.5C 463.412,448.464 462.912,443.464 462,438.5C 459.694,431.61 457.861,424.61 456.5,417.5C 456.47,416.503 456.97,415.836 458,415.5C 459.585,416.044 461.085,416.711 462.5,417.5C 468.29,417.904 473.956,417.404 479.5,416C 478.833,415.833 478.167,415.667 477.5,415.5C 473.547,416.362 469.547,416.695 465.5,416.5C 461.854,414.672 458.521,412.338 455.5,409.5C 451.245,404.723 449.578,399.056 450.5,392.5C 450.843,390.517 450.176,389.183 448.5,388.5C 444.482,379.949 441.149,371.116 438.5,362C 440.497,352.521 441.997,343.021 443,333.5C 441.414,335.67 440.08,338.004 439,340.5C 438.667,345.833 438.333,351.167 438,356.5C 435.005,348.137 434.839,339.804 437.5,331.5C 438.854,329.304 440.854,327.804 443.5,327C 446.628,326.159 449.628,325.325 452.5,324.5 Z"/></g>
<g><path style="opacity:0.996" fill="#332720" d="M 458.5,381.5 C 462.383,381.891 466.05,381.224 469.5,379.5C 469.956,374.182 471.456,369.182 474,364.5C 477.328,360.583 481.495,359.083 486.5,360C 482.679,361.161 479.179,362.994 476,365.5C 474.685,371.728 475.851,377.395 479.5,382.5C 473.231,384.997 466.898,385.497 460.5,384C 459.619,383.292 458.953,382.458 458.5,381.5 Z"/></g>
<g><path style="opacity:0.996" fill="#382c24" d="M 458.5,381.5 C 457.883,381.389 457.383,381.056 457,380.5C 456.333,375.167 456.333,369.833 457,364.5C 457.473,362.221 458.473,360.221 460,358.5C 458.936,366.068 458.436,373.735 458.5,381.5 Z"/></g>
<g><path style="opacity:0.996" fill="#352921" d="M 455.5,328.5 C 473.719,327.883 481.553,336.55 479,354.5C 477.009,357.58 474.175,359.246 470.5,359.5C 470.892,356.052 470.225,352.886 468.5,350C 471.428,345.553 472.928,340.719 473,335.5C 459.456,327.565 451.123,331.232 448,346.5C 447.333,353.833 447.333,361.167 448,368.5C 448.473,377.616 452.639,384.449 460.5,389C 456.061,388.522 452.561,386.356 450,382.5C 445.611,369.165 443.944,355.499 445,341.5C 447.571,336.324 451.071,331.991 455.5,328.5 Z"/></g>
<g><path style="opacity:0.996" fill="#a67b59" d="M 455.5,409.5 C 458.521,412.338 461.854,414.672 465.5,416.5C 464.209,416.263 463.209,416.596 462.5,417.5C 461.085,416.711 459.585,416.044 458,415.5C 456.97,415.836 456.47,416.503 456.5,417.5C 455.5,417.833 454.833,418.5 454.5,419.5C 453.326,418.486 452.66,417.153 452.5,415.5C 454.379,414.105 455.379,412.105 455.5,409.5 Z"/></g>
<g><path style="opacity:0.996" fill="#5a361f" d="M 544.5,414.5 C 545.15,416.435 545.483,418.435 545.5,420.5C 545.217,421.289 544.717,421.956 544,422.5C 542.485,419.166 541.985,415.833 542.5,412.5C 543.182,413.243 543.849,413.909 544.5,414.5 Z"/></g>
<g><path style="opacity:0.996" fill="#5e3a24" d="M 673.5,413.5 C 673.88,415.698 673.213,417.365 671.5,418.5C 670.209,418.737 669.209,418.404 668.5,417.5C 670.775,416.889 672.441,415.555 673.5,413.5 Z"/></g>
<g><path style="opacity:0.996" fill="#542f18" d="M 462.5,417.5 C 463.209,416.596 464.209,416.263 465.5,416.5C 469.547,416.695 473.547,416.362 477.5,415.5C 478.167,415.667 478.833,415.833 479.5,416C 473.956,417.404 468.29,417.904 462.5,417.5 Z"/></g>
<g><path style="opacity:0.996" fill="#57341e" d="M 667.5,418.5 C 664.316,420.414 660.649,421.08 656.5,420.5C 647.21,417.92 645.71,419.92 652,426.5C 653.076,431.601 651.91,436.101 648.5,440C 646.975,441.009 645.308,441.509 643.5,441.5C 640.415,440.607 637.248,439.94 634,439.5C 626.707,440.259 619.54,441.592 612.5,443.5C 612.5,444.5 612.5,445.5 612.5,446.5C 610.389,445.032 608.556,445.365 607,447.5C 605.661,454.426 605.161,461.426 605.5,468.5C 604.778,468.082 604.278,467.416 604,466.5C 599.893,448.96 606.727,439.794 624.5,439C 631.833,438.667 639.167,438.333 646.5,438C 647.333,437.167 648.167,436.333 649,435.5C 649.498,432.183 649.665,428.85 649.5,425.5C 644.821,425.666 640.155,425.499 635.5,425C 634.263,424.768 633.263,424.268 632.5,423.5C 636.514,423.666 640.514,423.499 644.5,423C 645.429,420.609 646.929,418.775 649,417.5C 655.151,419.401 661.317,419.735 667.5,418.5 Z"/></g>
<g><path style="opacity:0.996" fill="#9e897a" d="M 668.5,417.5 C 669.209,418.404 670.209,418.737 671.5,418.5C 668.944,420.445 665.944,421.445 662.5,421.5C 660.304,421.495 658.304,421.162 656.5,420.5C 660.649,421.08 664.316,420.414 667.5,418.5C 667.5,417.833 667.833,417.5 668.5,417.5 Z"/></g>
<g><path style="opacity:0.996" fill="#5a3720" d="M 620.5,425.5 C 622.199,425.34 623.866,425.506 625.5,426C 618.61,427.245 611.777,428.745 605,430.5C 603.97,430.164 603.47,429.497 603.5,428.5C 609.02,426.704 614.687,425.704 620.5,425.5 Z"/></g>
<g><path style="opacity:0.996" fill="#5c3820" d="M 456.5,417.5 C 457.861,424.61 459.694,431.61 462,438.5C 462.912,443.464 463.412,448.464 463.5,453.5C 461.15,442.107 458.15,430.773 454.5,419.5C 454.833,418.5 455.5,417.833 456.5,417.5 Z"/></g>
<g><path style="opacity:0.996" fill="#593620" d="M 599.5,431.5 C 600.376,431.369 601.043,431.702 601.5,432.5C 598.939,434.607 597.106,437.274 596,440.5C 595.401,446.053 594.067,451.386 592,456.5C 587.803,460.672 582.969,461.505 577.5,459C 576.262,458.31 576.262,457.81 577.5,457.5C 581.437,457.793 585.27,457.46 589,456.5C 591.677,450.455 593.344,444.122 594,437.5C 595.331,435.004 597.164,433.004 599.5,431.5 Z"/></g>
<g><path style="opacity:0.997" fill="#efd9b4" d="M 382.5,433.5 C 381.067,453.833 379.567,474.166 378,494.5C 371.78,480.727 366.113,466.727 361,452.5C 360.119,449.114 361.286,446.78 364.5,445.5C 365.833,444.833 366.833,443.833 367.5,442.5C 368.833,441.5 370.167,440.5 371.5,439.5C 373.482,439.005 375.482,438.505 377.5,438C 376.549,437.282 376.383,436.449 377,435.5C 378.6,433.419 380.434,432.752 382.5,433.5 Z"/></g>
<g><path style="opacity:0.996" fill="#57331c" d="M 482.5,433.5 C 483.222,433.918 483.722,434.584 484,435.5C 484.64,444.009 486.14,452.342 488.5,460.5C 484.48,452.081 482.48,443.081 482.5,433.5 Z"/></g>
<g><path style="opacity:0.996" fill="#5b371e" d="M 431.5,540.5 C 431.737,541.791 431.404,542.791 430.5,543.5C 428.772,507.189 427.605,470.856 427,434.5C 425.358,412.494 424.025,390.494 423,368.5C 425.426,393.456 427.426,418.456 429,443.5C 429.162,475.857 429.995,508.191 431.5,540.5 Z"/></g>
<g><path style="opacity:0.996" fill="#5d3a24" d="M 549.5,429.5 C 550.833,432.167 552.167,434.833 553.5,437.5C 553.631,438.239 553.464,438.906 553,439.5C 550.971,436.971 549.138,434.304 547.5,431.5C 547.855,430.478 548.522,429.811 549.5,429.5 Z"/></g>
<g><path style="opacity:0.996" fill="#542f18" d="M 371.5,439.5 C 370.167,440.5 368.833,441.5 367.5,442.5C 367.082,441.778 366.416,441.278 365.5,441C 367.116,440.385 368.449,439.385 369.5,438C 373.434,435.779 374.101,436.279 371.5,439.5 Z"/></g>
<g><path style="opacity:0.996" fill="#79746f" d="M 643.5,441.5 C 641.786,442.738 639.786,443.405 637.5,443.5C 637.5,444.833 637.5,446.167 637.5,447.5C 636.118,446.199 634.452,445.366 632.5,445C 626.167,444.333 619.833,444.333 613.5,445C 614.38,446.356 614.714,447.856 614.5,449.5C 612.952,449.179 612.285,448.179 612.5,446.5C 612.5,445.5 612.5,444.5 612.5,443.5C 619.54,441.592 626.707,440.259 634,439.5C 637.248,439.94 640.415,440.607 643.5,441.5 Z"/></g>
<g><path style="opacity:0.996" fill="#5b361d" d="M 412.5,437.5 C 413.495,449.655 413.829,461.989 413.5,474.5C 413.255,511.857 412.421,549.19 411,586.5C 410.283,536.819 410.783,487.152 412.5,437.5 Z"/></g>
<g><path style="opacity:0.996" fill="#efd9b4" d="M 637.5,447.5 C 638.492,447.328 639.158,447.662 639.5,448.5C 642.891,453.108 641.891,456.274 636.5,458C 634.167,458.333 631.833,458.667 629.5,459C 630.333,459.833 631.167,460.667 632,461.5C 632.767,465.558 632.6,469.558 631.5,473.5C 629.869,475.297 627.869,476.464 625.5,477C 621.129,477.629 616.796,477.463 612.5,476.5C 609.45,474.451 607.117,471.784 605.5,468.5C 605.161,461.426 605.661,454.426 607,447.5C 608.556,445.365 610.389,445.032 612.5,446.5C 612.285,448.179 612.952,449.179 614.5,449.5C 614.714,447.856 614.38,446.356 613.5,445C 619.833,444.333 626.167,444.333 632.5,445C 634.452,445.366 636.118,446.199 637.5,447.5 Z"/></g>
<g><path style="opacity:0.996" fill="#908579" d="M 614.5,449.5 C 617.622,451.234 620.622,453.234 623.5,455.5C 620.849,454.51 618.183,453.51 615.5,452.5C 614.873,451.583 614.539,450.583 614.5,449.5 Z"/></g>
<g><path style="opacity:0.996" fill="#593722" d="M 564.5,449.5 C 566.537,450.846 568.537,452.18 570.5,453.5C 568.806,454.686 567.139,454.519 565.5,453C 563.689,451.959 563.355,450.793 564.5,449.5 Z"/></g>
<g><path style="opacity:0.996" fill="#57321a" d="M 318.5,453.5 C 330.706,478.577 342.873,503.577 355,528.5C 340.713,503.865 327.213,479.531 314.5,455.5C 315.514,454.326 316.847,453.66 318.5,453.5 Z"/></g>
<g><path style="opacity:0.996" fill="#583620" d="M 571.5,454.5 C 572.833,454.833 574.167,455.167 575.5,455.5C 575.53,456.497 575.03,457.164 574,457.5C 572.5,457 571,456.5 569.5,456C 570.044,455.283 570.711,454.783 571.5,454.5 Z"/></g>
<g><path style="opacity:0.996" fill="#553019" d="M 623.5,455.5 C 626.336,455.202 626.836,455.869 625,457.5C 624.283,456.956 623.783,456.289 623.5,455.5 Z"/></g>
<g><path style="opacity:0.996" fill="#a77956" d="M 363.5,391.5 C 365.97,391.654 367.97,392.654 369.5,394.5C 366.309,395.092 363.309,396.259 360.5,398C 353.41,406.19 350.91,415.69 353,426.5C 357.74,452.052 366.073,476.385 378,499.5C 378.613,522.894 379.779,546.227 381.5,569.5C 380.978,570.607 380.645,571.774 380.5,573C 381.388,575.562 382.721,577.896 384.5,580C 385.943,584.037 386.776,588.203 387,592.5C 387.497,590.19 387.663,587.857 387.5,585.5C 388.387,589.096 389.387,592.762 390.5,596.5C 389.778,596.082 389.278,595.416 389,594.5C 388.125,595.873 387.625,597.373 387.5,599C 388.291,604.58 389.458,610.08 391,615.5C 391.494,613.866 391.66,612.199 391.5,610.5C 392.341,612.812 393.341,615.145 394.5,617.5C 393.007,618.312 392.34,619.645 392.5,621.5C 393.843,627.873 395.343,634.207 397,640.5C 397.494,638.866 397.66,637.199 397.5,635.5C 398.201,637.588 399.201,639.588 400.5,641.5C 399.307,641.97 398.64,642.97 398.5,644.5C 399.188,648.584 400.188,652.584 401.5,656.5C 402.386,655.675 402.719,654.675 402.5,653.5C 403.117,653.611 403.617,653.944 404,654.5C 404.146,658.058 404.979,661.391 406.5,664.5C 405.351,664.791 404.684,665.624 404.5,667C 405.388,672.665 406.888,678.165 409,683.5C 409.49,682.207 409.657,680.873 409.5,679.5C 410.308,681.22 411.308,682.887 412.5,684.5C 411.307,684.97 410.64,685.97 410.5,687.5C 411.896,692.856 413.396,698.19 415,703.5C 415.483,702.552 415.649,701.552 415.5,700.5C 416.308,702.22 417.308,703.887 418.5,705.5C 417.307,705.97 416.64,706.97 416.5,708.5C 417.896,713.856 419.396,719.19 421,724.5C 421.49,723.207 421.657,721.873 421.5,720.5C 422.492,722.456 423.492,724.456 424.5,726.5C 423.005,726.415 422.005,727.081 421.5,728.5C 371.503,729.667 321.503,729.833 271.5,729C 271,728.5 270.5,728 270,727.5C 269.828,721.319 269.328,715.319 268.5,709.5C 268.5,708.833 268.167,708.5 267.5,708.5C 267.204,702.669 266.871,696.836 266.5,691C 266.491,683.878 267.491,677.044 269.5,670.5C 269.333,682.171 269.5,693.838 270,705.5C 271.237,631.835 271.904,558.169 272,484.5C 271.831,498.006 271.331,511.34 270.5,524.5C 270.333,510.496 270.5,496.496 271,482.5C 283.401,473.38 296.234,464.88 309.5,457C 311.025,455.991 312.692,455.491 314.5,455.5C 327.213,479.531 340.713,503.865 355,528.5C 342.873,503.577 330.706,478.577 318.5,453.5C 323.873,448.294 328.706,442.627 333,436.5C 334.486,433.15 335.653,429.816 336.5,426.5C 336.34,428.199 336.506,429.866 337,431.5C 338.737,424.069 338.904,416.736 337.5,409.5C 337.216,407.585 337.549,405.919 338.5,404.5C 338.369,405.239 338.536,405.906 339,406.5C 339.519,401.981 341.686,398.481 345.5,396C 351.724,394.445 357.724,392.945 363.5,391.5 Z"/></g>
<g><path style="opacity:0.949" fill="#bdbdbd" d="M 885.5,466.5 C 884.833,466.5 884.167,466.5 883.5,466.5C 884.398,459.189 885.231,451.856 886,444.5C 886.726,451.869 886.559,459.202 885.5,466.5 Z"/></g>
<g><path style="opacity:0.996" fill="#85644a" d="M 464.5,454.5 C 466.385,467.807 468.051,481.141 469.5,494.5C 467.192,482.534 465.192,470.367 463.5,458C 463.514,456.615 463.848,455.449 464.5,454.5 Z"/></g>
<g><path style="opacity:0.996" fill="#55311a" d="M 489.5,462.5 C 492.94,466.012 494.607,470.012 494.5,474.5C 492.315,470.787 490.648,466.787 489.5,462.5 Z"/></g>
<g><path style="opacity:0.996" fill="#c1a076" d="M 413.5,433.5 C 413.5,434.167 413.833,434.5 414.5,434.5C 414.829,448.01 414.496,461.344 413.5,474.5C 413.829,461.989 413.495,449.655 412.5,437.5C 412.232,435.901 412.566,434.568 413.5,433.5 Z"/></g>
<g><path style="opacity:0.996" fill="#56311a" d="M 639.5,448.5 C 641.922,449.692 642.922,451.692 642.5,454.5C 642.073,458.016 641.073,461.349 639.5,464.5C 638.732,465.263 638.232,466.263 638,467.5C 637.489,465.122 636.822,462.788 636,460.5C 635.667,460.833 635.333,461.167 635,461.5C 634.66,465.558 633.993,469.558 633,473.5C 632.07,475.552 630.57,477.052 628.5,478C 622.756,480.379 617.423,479.879 612.5,476.5C 616.796,477.463 621.129,477.629 625.5,477C 627.869,476.464 629.869,475.297 631.5,473.5C 632.6,469.558 632.767,465.558 632,461.5C 631.167,460.667 630.333,459.833 629.5,459C 631.833,458.667 634.167,458.333 636.5,458C 641.891,456.274 642.891,453.108 639.5,448.5 Z"/></g>
<g><path style="opacity:0.996" fill="#59351e" d="M 501.5,482.5 C 503.757,483.562 504.923,485.228 505,487.5C 504.292,486.619 503.458,485.953 502.5,485.5C 501.89,484.609 501.557,483.609 501.5,482.5 Z"/></g>
<g><path style="opacity:0.996" fill="#59361f" d="M 525.5,507.5 C 518.581,502.918 512.247,497.585 506.5,491.5C 506.783,490.711 507.283,490.044 508,489.5C 513.405,495.576 519.405,500.909 526,505.5C 526.692,506.437 526.525,507.103 525.5,507.5 Z"/></g>
<g><path style="opacity:0.996" fill="#56321c" d="M 531.5,511.5 C 530.167,510.833 528.833,510.167 527.5,509.5C 527.369,508.761 527.536,508.094 528,507.5C 529.771,508.304 531.271,509.471 532.5,511C 532.272,511.399 531.938,511.565 531.5,511.5 Z"/></g>
<g><path style="opacity:0.996" fill="#7d5a3e" d="M 470.5,496.5 C 471.833,507.5 473.167,518.5 474.5,529.5C 472.596,522.052 471.096,514.385 470,506.5C 469.192,502.973 469.359,499.64 470.5,496.5 Z"/></g>
<g><path style="opacity:0.996" fill="#533019" d="M 547.5,521.5 C 549.593,522.045 551.593,522.878 553.5,524C 552.944,524.383 552.611,524.883 552.5,525.5C 550.611,524.396 548.945,523.063 547.5,521.5 Z"/></g>
<g><path style="opacity:0.996" fill="#5a3721" d="M 560.5,529.5 C 558.784,529.371 557.117,529.038 555.5,528.5C 555.082,527.778 554.416,527.278 553.5,527C 556.649,526.726 559.649,527.392 562.5,529C 561.906,529.464 561.239,529.631 560.5,529.5 Z"/></g>
<g><path style="opacity:0.996" fill="#58341d" d="M 551.5,532.5 C 550.209,532.263 549.209,532.596 548.5,533.5C 546.399,535.488 543.899,537.155 541,538.5C 540.361,542.929 541.195,547.096 543.5,551C 543.167,551.5 542.833,552 542.5,552.5C 541.023,549.409 539.356,546.409 537.5,543.5C 530.691,548.478 525.524,554.811 522,562.5C 522.207,565.918 522.041,569.251 521.5,572.5C 519.375,569.912 518.042,566.912 517.5,563.5C 525.199,550.631 535.199,539.797 547.5,531C 549.352,530.227 550.686,530.727 551.5,532.5 Z"/></g>
<g><path style="opacity:0.996" fill="#826148" d="M 474.5,531.5 C 476.475,539.936 477.808,548.603 478.5,557.5C 476.345,549.091 475.012,540.424 474.5,531.5 Z"/></g>
<g><path style="opacity:0.996" fill="#5a3621" d="M 582.5,539.5 C 586.556,538.147 590.556,538.647 594.5,541C 593.906,541.464 593.239,541.631 592.5,541.5C 589.198,540.706 585.865,540.04 582.5,539.5 Z"/></g>
<g><path style="opacity:0.996" fill="#532e18" d="M 629.5,545.5 C 623.167,545.5 616.833,545.5 610.5,545.5C 615.495,544.647 620.662,543.98 626,543.5C 627.681,543.608 628.848,544.275 629.5,545.5 Z"/></g>
<g><path style="opacity:0.996" fill="#5a3620" d="M 269.5,670.5 C 270.048,621.835 270.381,573.168 270.5,524.5C 271.331,511.34 271.831,498.006 272,484.5C 271.904,558.169 271.237,631.835 270,705.5C 269.5,693.838 269.333,682.171 269.5,670.5 Z"/></g>
<g><path style="opacity:0.996" fill="#a67955" d="M 548.5,533.5 C 556.779,536.897 564.112,541.564 570.5,547.5C 569.233,546.913 568.233,546.913 567.5,547.5C 568.609,549.385 569.443,551.385 570,553.5C 570.637,560.237 571.637,566.904 573,573.5C 576.276,579.108 579.943,584.442 584,589.5C 585.893,592.618 587.226,595.951 588,599.5C 588.72,620.08 586.72,640.413 582,660.5C 581.194,663.446 579.861,666.112 578,668.5C 570.436,631.809 560.436,595.809 548,560.5C 547.252,558.668 546.252,557.001 545,555.5C 544.833,556.167 544.667,556.833 544.5,557.5C 556.707,593.325 567.207,629.658 576,666.5C 576.667,672.167 576.667,677.833 576,683.5C 572.316,697.743 573.316,698.076 579,684.5C 580.156,680.877 581.156,677.211 582,673.5C 585.367,652.064 588.2,630.564 590.5,609C 590.523,604.432 590.023,599.932 589,595.5C 584,587.167 579,578.833 574,570.5C 572.544,564.903 572.211,559.237 573,553.5C 578,557.833 583,562.167 588,566.5C 588.399,566.272 588.565,565.938 588.5,565.5C 594.777,569.115 600.777,573.115 606.5,577.5C 605.957,577.56 605.624,577.893 605.5,578.5C 608.91,585.945 610.243,593.778 609.5,602C 608.861,620.946 607.028,639.78 604,658.5C 599.986,678.569 595.986,698.569 592,718.5C 595.258,711.472 597.591,704.139 599,696.5C 606.952,662.223 611.118,627.557 611.5,592.5C 615.018,599.844 620.685,605.011 628.5,608C 631.432,610.285 634.098,612.785 636.5,615.5C 635.448,615.351 634.448,615.517 633.5,616C 638.11,620.456 643.11,624.29 648.5,627.5C 650.017,627.511 651.184,628.177 652,629.5C 656.045,634.707 659.878,640.04 663.5,645.5C 661.187,644.608 660.853,645.442 662.5,648C 663.487,649.872 664.154,649.705 664.5,647.5C 673.246,659.319 681.246,671.652 688.5,684.5C 687.624,684.369 686.957,684.702 686.5,685.5C 688.222,690.321 690.889,694.321 694.5,697.5C 700.571,707.301 706.905,716.968 713.5,726.5C 712.005,726.415 711.005,727.081 710.5,728.5C 670.172,729.5 629.839,729.833 589.5,729.5C 591.233,718.042 590.233,717.709 586.5,728.5C 579.866,729.497 573.2,729.83 566.5,729.5C 557.5,729.5 548.5,729.5 539.5,729.5C 527.771,729.912 516.104,729.412 504.5,728C 502.765,725.808 501.598,723.308 501,720.5C 499.808,714.285 498.308,708.285 496.5,702.5C 494.518,693.271 493.184,683.938 492.5,674.5C 492.477,669.126 491.977,663.793 491,658.5C 490.768,659.737 490.268,660.737 489.5,661.5C 488.699,659.958 488.366,658.292 488.5,656.5C 489.972,654.883 490.639,652.883 490.5,650.5C 489.714,646.844 489.547,643.177 490,639.5C 490.333,640.833 490.667,642.167 491,643.5C 491.77,644.598 492.603,644.598 493.5,643.5C 494.309,645.028 494.976,646.694 495.5,648.5C 495.631,656.794 498.631,664.127 504.5,670.5C 505.338,670.842 505.672,671.508 505.5,672.5C 505.369,675.367 506.703,677.033 509.5,677.5C 511.262,678.262 512.262,679.596 512.5,681.5C 511.637,680.537 510.97,680.537 510.5,681.5C 512.188,686.226 514.855,690.226 518.5,693.5C 519.298,693.043 519.631,692.376 519.5,691.5C 520.5,691.5 521.5,691.5 522.5,691.5C 522.5,692.833 522.5,694.167 522.5,695.5C 520.972,695.517 520.472,696.184 521,697.5C 523.22,700.189 525.72,701.522 528.5,701.5C 529.872,702.512 531.205,703.512 532.5,704.5C 530.663,704.639 530.33,705.306 531.5,706.5C 533.915,707.305 536.249,708.305 538.5,709.5C 539.522,709.145 540.189,708.478 540.5,707.5C 541.71,707.932 542.71,708.599 543.5,709.5C 542.325,709.281 541.325,709.614 540.5,710.5C 548.232,712.604 555.899,712.937 563.5,711.5C 567.562,711.276 570.395,709.276 572,705.5C 572.667,701.5 572.667,697.5 572,693.5C 566.4,673.413 559.733,653.746 552,634.5C 551.601,634.728 551.435,635.062 551.5,635.5C 549.973,635.573 548.973,634.906 548.5,633.5C 549.748,632.666 550.415,631.333 550.5,629.5C 547.393,619.952 543.726,610.618 539.5,601.5C 538.818,602.243 538.151,602.909 537.5,603.5C 535.755,601.967 534.755,599.967 534.5,597.5C 535.629,595.372 535.796,593.039 535,590.5C 532.984,586.469 530.984,582.469 529,578.5C 528.487,579.527 527.987,580.527 527.5,581.5C 525.738,580.738 524.738,579.404 524.5,577.5C 525.824,578.85 526.824,578.683 527.5,577C 526.888,574.942 525.888,573.109 524.5,571.5C 523.575,572.357 522.908,573.357 522.5,574.5C 521.662,574.158 521.328,573.492 521.5,572.5C 522.041,569.251 522.207,565.918 522,562.5C 525.524,554.811 530.691,548.478 537.5,543.5C 539.356,546.409 541.023,549.409 542.5,552.5C 542.833,552 543.167,551.5 543.5,551C 541.195,547.096 540.361,542.929 541,538.5C 543.899,537.155 546.399,535.488 548.5,533.5 Z"/></g>
<g><path style="opacity:0.996" fill="#57311a" d="M 364.5,544.5 C 369.225,550.928 373.725,557.595 378,564.5C 379.373,566.695 379.706,569.029 379,571.5C 373.908,562.592 369.075,553.592 364.5,544.5 Z"/></g>
<g><path style="opacity:0.996" fill="#815e41" d="M 431.5,540.5 C 432.951,551.984 433.951,563.651 434.5,575.5C 433.518,578.962 433.185,582.629 433.5,586.5C 432.589,572.311 431.589,557.978 430.5,543.5C 431.404,542.791 431.737,541.791 431.5,540.5 Z"/></g>
<g><path style="opacity:0.996" fill="#8a684a" d="M 478.5,559.5 C 480.119,567.023 481.453,574.69 482.5,582.5C 481.596,583.209 481.263,584.209 481.5,585.5C 479.984,577.033 478.984,568.367 478.5,559.5 Z"/></g>
<g><path style="opacity:0.996" fill="#c6aa85" d="M 517.5,563.5 C 518.042,566.912 519.375,569.912 521.5,572.5C 521.328,573.492 521.662,574.158 522.5,574.5C 523.167,575.5 523.833,576.5 524.5,577.5C 524.738,579.404 525.738,580.738 527.5,581.5C 530.366,586.569 532.699,591.902 534.5,597.5C 534.755,599.967 535.755,601.967 537.5,603.5C 542.748,612.91 546.415,622.91 548.5,633.5C 548.973,634.906 549.973,635.573 551.5,635.5C 557.763,655.79 563.929,676.123 570,696.5C 571.391,703.193 569.224,708.193 563.5,711.5C 556.717,711.799 550.051,711.133 543.5,709.5C 542.71,708.599 541.71,707.932 540.5,707.5C 537.673,706.892 535.007,705.892 532.5,704.5C 531.205,703.512 529.872,702.512 528.5,701.5C 526.806,699.139 524.806,697.139 522.5,695.5C 522.5,694.167 522.5,692.833 522.5,691.5C 521.5,691.5 520.5,691.5 519.5,691.5C 516.391,688.722 514.058,685.389 512.5,681.5C 512.262,679.596 511.262,678.262 509.5,677.5C 508.396,675.611 507.063,673.945 505.5,672.5C 505.672,671.508 505.338,670.842 504.5,670.5C 501.506,663.177 498.506,655.844 495.5,648.5C 494.976,646.694 494.309,645.028 493.5,643.5C 485.753,628.823 483.419,613.489 486.5,597.5C 488.139,595.194 490.139,593.194 492.5,591.5C 492.897,592.525 493.563,592.692 494.5,592C 501.428,585.577 507.762,578.744 513.5,571.5C 516.526,570.241 516.86,568.908 514.5,567.5C 514.468,565.381 515.468,564.048 517.5,563.5 Z"/></g>
<g><path style="opacity:0.996" fill="#59341d" d="M 514.5,567.5 C 516.86,568.908 516.526,570.241 513.5,571.5C 513.833,570.167 514.167,568.833 514.5,567.5 Z"/></g>
<g><path style="opacity:0.996" fill="#56321b" d="M 524.5,577.5 C 523.833,576.5 523.167,575.5 522.5,574.5C 522.908,573.357 523.575,572.357 524.5,571.5C 525.888,573.109 526.888,574.942 527.5,577C 526.824,578.683 525.824,578.85 524.5,577.5 Z"/></g>
<g><path style="opacity:0.996" fill="#613c23" d="M 434.5,575.5 C 435.5,593.823 435.666,612.156 435,630.5C 433.518,615.99 433.018,601.324 433.5,586.5C 433.185,582.629 433.518,578.962 434.5,575.5 Z"/></g>
<g><path style="opacity:0.996" fill="#553019" d="M 534.5,597.5 C 532.699,591.902 530.366,586.569 527.5,581.5C 527.987,580.527 528.487,579.527 529,578.5C 530.984,582.469 532.984,586.469 535,590.5C 535.796,593.039 535.629,595.372 534.5,597.5 Z"/></g>
<g><path style="opacity:0.996" fill="#876951" d="M 513.5,571.5 C 507.762,578.744 501.428,585.577 494.5,592C 493.563,592.692 492.897,592.525 492.5,591.5C 499.474,584.861 506.474,578.194 513.5,571.5 Z"/></g>
<g><path style="opacity:0.996" fill="#56321a" d="M 481.5,585.5 C 481.263,584.209 481.596,583.209 482.5,582.5C 482.835,587.177 483.335,591.844 484,596.5C 484.671,597.252 485.504,597.586 486.5,597.5C 483.419,613.489 485.753,628.823 493.5,643.5C 492.603,644.598 491.77,644.598 491,643.5C 490.667,642.167 490.333,640.833 490,639.5C 489.547,643.177 489.714,646.844 490.5,650.5C 490.639,652.883 489.972,654.883 488.5,656.5C 487.704,643.429 486.204,630.429 484,617.5C 478.491,608.485 473.491,599.151 469,589.5C 465.75,582.429 463.75,575.095 463,567.5C 463.667,568.833 464.333,570.167 465,571.5C 468.776,585.379 474.443,598.379 482,610.5C 482.705,602.139 482.538,593.806 481.5,585.5 Z"/></g>
<g><path style="opacity:0.097" fill="#fafafa" d="M 210.5,127.5 C 198.859,140.482 187.526,153.815 176.5,167.5C 173.135,171.87 170.468,176.537 168.5,181.5C 167.5,181.5 166.5,181.5 165.5,181.5C 163.833,185.5 162.167,189.5 160.5,193.5C 159.5,193.5 158.5,193.5 157.5,193.5C 155.929,196.316 154.596,199.316 153.5,202.5C 149.931,208.631 146.097,214.631 142,220.5C 138.113,229.274 133.947,237.941 129.5,246.5C 78.6024,362.982 79.1024,478.982 131,594.5C 141.1,613.229 151.267,631.896 161.5,650.5C 163.592,650.561 165.092,651.561 166,653.5C 167.769,658.064 169.936,662.397 172.5,666.5C 167.749,661.546 163.416,656.212 159.5,650.5C 98.1937,553.789 77.8604,449.122 98.5,336.5C 112.096,269.677 139.763,210.01 181.5,157.5C 190.167,147.833 198.833,138.167 207.5,128.5C 208.417,127.873 209.417,127.539 210.5,127.5 Z"/></g>
<g><path style="opacity:0.996" fill="#56311a" d="M 390.5,596.5 C 390.669,601.181 391.002,605.848 391.5,610.5C 391.66,612.199 391.494,613.866 391,615.5C 389.458,610.08 388.291,604.58 387.5,599C 387.625,597.373 388.125,595.873 389,594.5C 389.278,595.416 389.778,596.082 390.5,596.5 Z"/></g>
<g><path style="opacity:0.996" fill="#56311a" d="M 548.5,633.5 C 546.415,622.91 542.748,612.91 537.5,603.5C 538.151,602.909 538.818,602.243 539.5,601.5C 543.726,610.618 547.393,619.952 550.5,629.5C 550.415,631.333 549.748,632.666 548.5,633.5 Z"/></g>
<g><path style="opacity:0.996" fill="#5e3b26" d="M 636.5,615.5 C 640.806,619.14 644.806,623.14 648.5,627.5C 643.11,624.29 638.11,620.456 633.5,616C 634.448,615.517 635.448,615.351 636.5,615.5 Z"/></g>
<g><path style="opacity:0.996" fill="#542f18" d="M 394.5,617.5 C 395.242,623.545 396.242,629.545 397.5,635.5C 397.66,637.199 397.494,638.866 397,640.5C 395.343,634.207 393.843,627.873 392.5,621.5C 392.34,619.645 393.007,618.312 394.5,617.5 Z"/></g>
<g><path style="opacity:0.996" fill="#553019" d="M 606.5,577.5 C 610.334,581.668 612,586.668 611.5,592.5C 611.118,627.557 606.952,662.223 599,696.5C 597.591,704.139 595.258,711.472 592,718.5C 595.986,698.569 599.986,678.569 604,658.5C 607.028,639.78 608.861,620.946 609.5,602C 610.243,593.778 608.91,585.945 605.5,578.5C 605.624,577.893 605.957,577.56 606.5,577.5 Z"/></g>
<g><path style="opacity:0.996" fill="#553019" d="M 563.5,711.5 C 569.224,708.193 571.391,703.193 570,696.5C 563.929,676.123 557.763,655.79 551.5,635.5C 551.435,635.062 551.601,634.728 552,634.5C 559.733,653.746 566.4,673.413 572,693.5C 572.667,697.5 572.667,701.5 572,705.5C 570.395,709.276 567.562,711.276 563.5,711.5 Z"/></g>
<g><path style="opacity:0.996" fill="#543019" d="M 570.5,547.5 C 576.833,553.167 582.833,559.167 588.5,565.5C 588.565,565.938 588.399,566.272 588,566.5C 583,562.167 578,557.833 573,553.5C 572.211,559.237 572.544,564.903 574,570.5C 579,578.833 584,587.167 589,595.5C 590.023,599.932 590.523,604.432 590.5,609C 588.2,630.564 585.367,652.064 582,673.5C 581.156,677.211 580.156,680.877 579,684.5C 573.316,698.076 572.316,697.743 576,683.5C 576.667,677.833 576.667,672.167 576,666.5C 567.207,629.658 556.707,593.325 544.5,557.5C 544.667,556.833 544.833,556.167 545,555.5C 546.252,557.001 547.252,558.668 548,560.5C 560.436,595.809 570.436,631.809 578,668.5C 579.861,666.112 581.194,663.446 582,660.5C 586.72,640.413 588.72,620.08 588,599.5C 587.226,595.951 585.893,592.618 584,589.5C 579.943,584.442 576.276,579.108 573,573.5C 571.637,566.904 570.637,560.237 570,553.5C 569.443,551.385 568.609,549.385 567.5,547.5C 568.233,546.913 569.233,546.913 570.5,547.5 Z"/></g>
<g><path style="opacity:0.996" fill="#56321a" d="M 400.5,641.5 C 401.038,645.524 401.705,649.524 402.5,653.5C 402.719,654.675 402.386,655.675 401.5,656.5C 400.188,652.584 399.188,648.584 398.5,644.5C 398.64,642.97 399.307,641.97 400.5,641.5 Z"/></g>
<g><path style="opacity:0.996" fill="#56321b" d="M 663.5,645.5 C 663.833,646.167 664.167,646.833 664.5,647.5C 664.154,649.705 663.487,649.872 662.5,648C 660.853,645.442 661.187,644.608 663.5,645.5 Z"/></g>
<g><path style="opacity:0.996" fill="#57331c" d="M 495.5,648.5 C 498.506,655.844 501.506,663.177 504.5,670.5C 498.631,664.127 495.631,656.794 495.5,648.5 Z"/></g>
<g><path style="opacity:0.996" fill="#57321c" d="M 492.5,674.5 C 491.402,670.281 490.402,665.948 489.5,661.5C 490.268,660.737 490.768,659.737 491,658.5C 491.977,663.793 492.477,669.126 492.5,674.5 Z"/></g>
<g><path style="opacity:0.996" fill="#5b371e" d="M 406.5,664.5 C 407.659,669.468 408.659,674.468 409.5,679.5C 409.657,680.873 409.49,682.207 409,683.5C 406.888,678.165 405.388,672.665 404.5,667C 404.684,665.624 405.351,664.791 406.5,664.5 Z"/></g>
<g><path style="opacity:0.914" fill="#bcbcbc" d="M 805.5,668.5 C 803.744,669.552 803.077,671.219 803.5,673.5C 802.167,673.5 800.833,673.5 799.5,673.5C 799.5,675.167 799.5,676.833 799.5,678.5C 798.167,678.5 796.833,678.5 795.5,678.5C 798.037,673.783 801.204,669.449 805,665.5C 805.483,666.448 805.649,667.448 805.5,668.5 Z"/></g>
<g><path style="opacity:1" fill="#56311a" d="M 505.5,672.5 C 507.063,673.945 508.396,675.611 509.5,677.5C 506.703,677.033 505.369,675.367 505.5,672.5 Z"/></g>
<g><path style="opacity:0.996" fill="#59341d" d="M 512.5,681.5 C 514.058,685.389 516.391,688.722 519.5,691.5C 519.631,692.376 519.298,693.043 518.5,693.5C 514.855,690.226 512.188,686.226 510.5,681.5C 510.97,680.537 511.637,680.537 512.5,681.5 Z"/></g>
<g><path style="opacity:0.996" fill="#58341c" d="M 412.5,684.5 C 413.286,689.882 414.286,695.216 415.5,700.5C 415.649,701.552 415.483,702.552 415,703.5C 413.396,698.19 411.896,692.856 410.5,687.5C 410.64,685.97 411.307,684.97 412.5,684.5 Z"/></g>
<g><path style="opacity:0.996" fill="#58341e" d="M 688.5,684.5 C 690.229,688.958 692.229,693.291 694.5,697.5C 690.889,694.321 688.222,690.321 686.5,685.5C 686.957,684.702 687.624,684.369 688.5,684.5 Z"/></g>
<g><path style="opacity:0.996" fill="#603d25" d="M 522.5,695.5 C 524.806,697.139 526.806,699.139 528.5,701.5C 525.72,701.522 523.22,700.189 521,697.5C 520.472,696.184 520.972,695.517 522.5,695.5 Z"/></g>
<g><path style="opacity:0.996" fill="#56311a" d="M 532.5,704.5 C 535.007,705.892 537.673,706.892 540.5,707.5C 540.189,708.478 539.522,709.145 538.5,709.5C 536.249,708.305 533.915,707.305 531.5,706.5C 530.33,705.306 530.663,704.639 532.5,704.5 Z"/></g>
<g><path style="opacity:0.996" fill="#55301a" d="M 543.5,709.5 C 550.051,711.133 556.717,711.799 563.5,711.5C 555.899,712.937 548.232,712.604 540.5,710.5C 541.325,709.614 542.325,709.281 543.5,709.5 Z"/></g>
<g><path style="opacity:0.78" fill="#cbcbcb" d="M 795.5,678.5 C 795.5,680.5 795.5,682.5 795.5,684.5C 794.167,684.5 792.833,684.5 791.5,684.5C 791.5,686.167 791.5,687.833 791.5,689.5C 790.167,689.5 788.833,689.5 787.5,689.5C 787.5,691.167 787.5,692.833 787.5,694.5C 786.167,694.5 784.833,694.5 783.5,694.5C 783.5,695.833 783.5,697.167 783.5,698.5C 782.167,698.5 780.833,698.5 779.5,698.5C 779.5,699.833 779.5,701.167 779.5,702.5C 778.167,702.5 776.833,702.5 775.5,702.5C 775.5,704.167 775.5,705.833 775.5,707.5C 774.167,707.5 772.833,707.5 771.5,707.5C 771.5,708.5 771.5,709.5 771.5,710.5C 770.167,710.5 768.833,710.5 767.5,710.5C 767.5,712.167 767.5,713.833 767.5,715.5C 766.167,715.5 764.833,715.5 763.5,715.5C 763.5,716.5 763.5,717.5 763.5,718.5C 762.167,718.5 760.833,718.5 759.5,718.5C 759.5,719.5 759.5,720.5 759.5,721.5C 758.167,721.5 756.833,721.5 755.5,721.5C 755.5,723.167 755.5,724.833 755.5,726.5C 754.167,726.5 752.833,726.5 751.5,726.5C 751.5,727.5 751.5,728.5 751.5,729.5C 750.167,729.5 748.833,729.5 747.5,729.5C 747.5,730.833 747.5,732.167 747.5,733.5C 746.167,733.5 744.833,733.5 743.5,733.5C 743.5,734.5 743.5,735.5 743.5,736.5C 742.167,736.5 740.833,736.5 739.5,736.5C 739.5,737.5 739.5,738.5 739.5,739.5C 738.167,739.5 736.833,739.5 735.5,739.5C 735.5,740.5 735.5,741.5 735.5,742.5C 734.167,742.5 732.833,742.5 731.5,742.5C 731.5,743.833 731.5,745.167 731.5,746.5C 730.167,746.5 728.833,746.5 727.5,746.5C 724.63,747.433 722.296,749.1 720.5,751.5C 719.596,752.209 719.263,753.209 719.5,754.5C 718.167,754.5 716.833,754.5 715.5,754.5C 715.5,755.5 715.5,756.5 715.5,757.5C 714.167,757.5 712.833,757.5 711.5,757.5C 711.5,758.5 711.5,759.5 711.5,760.5C 708.833,761.167 706.167,761.833 703.5,762.5C 703.5,763.5 703.5,764.5 703.5,765.5C 700.833,766.167 698.167,766.833 695.5,767.5C 695.5,768.5 695.5,769.5 695.5,770.5C 692.833,771.167 690.167,771.833 687.5,772.5C 687.5,773.5 687.5,774.5 687.5,775.5C 684.833,776.167 682.167,776.833 679.5,777.5C 677.446,778.609 675.279,779.609 673,780.5C 672.5,780.333 672,780.167 671.5,780C 719.247,754.094 760.581,720.261 795.5,678.5 Z"/></g>
<g><path style="opacity:0.996" fill="#532e17" d="M 496.5,702.5 C 498.308,708.285 499.808,714.285 501,720.5C 501.598,723.308 502.765,725.808 504.5,728C 516.104,729.412 527.771,729.912 539.5,729.5C 449.335,730.499 359.002,730.833 268.5,730.5C 268.5,723.5 268.5,716.5 268.5,709.5C 269.328,715.319 269.828,721.319 270,727.5C 270.5,728 271,728.5 271.5,729C 321.503,729.833 371.503,729.667 421.5,728.5C 422.005,727.081 423.005,726.415 424.5,726.5C 424.5,727.5 424.5,728.5 424.5,729.5C 449.833,729.5 475.167,729.5 500.5,729.5C 499.426,720.461 498.092,711.461 496.5,702.5 Z"/></g>
<g><path style="opacity:0.996" fill="#57331b" d="M 418.5,705.5 C 419.608,710.484 420.608,715.484 421.5,720.5C 421.657,721.873 421.49,723.207 421,724.5C 419.396,719.19 417.896,713.856 416.5,708.5C 416.64,706.97 417.307,705.97 418.5,705.5 Z"/></g>
<g><path style="opacity:0.996" fill="#542f19" d="M 713.5,726.5 C 713.751,728.17 714.418,729.67 715.5,731C 665.501,731.5 615.501,731.667 565.5,731.5C 565.833,730.833 566.167,730.167 566.5,729.5C 573.2,729.83 579.866,729.497 586.5,728.5C 590.233,717.709 591.233,718.042 589.5,729.5C 629.839,729.833 670.172,729.5 710.5,728.5C 711.005,727.081 712.005,726.415 713.5,726.5 Z"/></g>
<g><path style="opacity:0.996" fill="#694935" d="M 267.5,708.5 C 268.167,708.5 268.5,708.833 268.5,709.5C 268.5,716.5 268.5,723.5 268.5,730.5C 359.002,730.833 449.335,730.499 539.5,729.5C 548.5,729.5 557.5,729.5 566.5,729.5C 566.167,730.167 565.833,730.833 565.5,731.5C 466.167,731.5 366.833,731.5 267.5,731.5C 267.5,723.833 267.5,716.167 267.5,708.5 Z"/></g>
<g><path style="opacity:0.11" fill="#f3f3f3" d="M 727.5,746.5 C 727.5,747.5 727.5,748.5 727.5,749.5C 725.071,749.884 722.737,750.551 720.5,751.5C 722.296,749.1 724.63,747.433 727.5,746.5 Z"/></g>
<g><path style="opacity:0.275" fill="#f5f5f5" d="M 619.5,805.5 C 615.375,806.553 611.375,808.22 607.5,810.5C 600.793,811.867 594.126,813.2 587.5,814.5C 598.13,811.505 608.796,808.505 619.5,805.5 Z"/></g>
<g><path style="opacity:0.858" fill="#bbbbbb" d="M 655.5,790.5 C 646.441,794.69 637.108,798.356 627.5,801.5C 627.5,802.5 627.5,803.5 627.5,804.5C 624.615,804.194 621.948,804.527 619.5,805.5C 608.796,808.505 598.13,811.505 587.5,814.5C 578.088,816.565 568.754,818.565 559.5,820.5C 526.125,826.576 492.458,828.076 458.5,825C 529.23,828.954 596.563,815.787 660.5,785.5C 660.833,785.833 661.167,786.167 661.5,786.5C 659.099,787.358 657.099,788.691 655.5,790.5 Z"/></g>
<g><path style="opacity:0.137" fill="#f6f6f6" d="M 587.5,814.5 C 586.77,816.045 585.437,816.878 583.5,817C 575.64,819.132 567.64,820.298 559.5,820.5C 568.754,818.565 578.088,816.565 587.5,814.5 Z"/></g>
</svg>
